<svg width="41" height="40" viewBox="0 0 41 40" fill="none" xmlns="http://www.w3.org/2000/svg">
<g clip-path="url(#clip0_302_248)">
<path opacity="0.977" fill-rule="evenodd" clip-rule="evenodd" d="M9.18112 -0.0126953C15.1131 -0.0126953 21.045 -0.0126953 26.977 -0.0126953C26.9852 0.0263991 27.011 0.0432342 27.0542 0.0378097C27.0542 0.0630623 27.0542 0.0883148 27.0542 0.113567C27.0885 0.113567 27.123 0.113567 27.1572 0.113567C27.1572 0.13882 27.1572 0.164072 27.1572 0.189325C27.183 0.189325 27.2088 0.189325 27.2345 0.189325C27.2345 0.214577 27.2345 0.23983 27.2345 0.265082C27.2603 0.265082 27.286 0.265082 27.3118 0.265082C27.3118 0.290335 27.3118 0.315588 27.3118 0.34084C27.3375 0.34084 27.3633 0.34084 27.389 0.34084C27.389 0.366093 27.389 0.391345 27.389 0.416598C27.4148 0.416598 27.4405 0.416598 27.4663 0.416598C27.4663 0.44185 27.4663 0.467103 27.4663 0.492355C27.492 0.492355 27.5178 0.492355 27.5436 0.492355C27.5436 0.526024 27.5436 0.559696 27.5436 0.593365C27.5693 0.593365 27.5951 0.593365 27.6208 0.593365C27.6208 0.618618 27.6208 0.64387 27.6208 0.669123C27.6466 0.669123 27.6723 0.669123 27.6981 0.669123C27.6981 0.694375 27.6981 0.719628 27.6981 0.74488C27.7238 0.74488 27.7496 0.74488 27.7753 0.74488C27.7753 0.770133 27.7753 0.795385 27.7753 0.820638C27.8096 0.820638 27.8441 0.820638 27.8784 0.820638C27.8784 0.845891 27.8784 0.871143 27.8784 0.896396C27.9041 0.896396 27.9299 0.896396 27.9556 0.896396C27.9556 0.921648 27.9556 0.946901 27.9556 0.972153C27.9814 0.972153 28.0071 0.972153 28.0329 0.972153C28.0329 0.997406 28.0329 1.02266 28.0329 1.04791C28.0586 1.04791 28.0844 1.04791 28.1101 1.04791C28.1101 1.07316 28.1101 1.09842 28.1101 1.12367C28.1359 1.12367 28.1616 1.12367 28.1874 1.12367C28.1874 1.14892 28.1874 1.17417 28.1874 1.19943C28.2132 1.19943 28.2389 1.19943 28.2647 1.19943C28.2647 1.2331 28.2647 1.26677 28.2647 1.30044C28.2904 1.30044 28.3162 1.30044 28.3419 1.30044C28.3419 1.32569 28.3419 1.35094 28.3419 1.37619C28.3677 1.37619 28.3934 1.37619 28.4192 1.37619C28.4192 1.40145 28.4192 1.4267 28.4192 1.45195C28.4449 1.45195 28.4707 1.45195 28.4964 1.45195C28.4964 1.4772 28.4964 1.50246 28.4964 1.52771C28.5222 1.52771 28.548 1.52771 28.5737 1.52771C28.5737 1.55296 28.5737 1.57821 28.5737 1.60347C28.608 1.60347 28.6425 1.60347 28.6767 1.60347C28.6767 1.62872 28.6767 1.65397 28.6767 1.67922C28.7025 1.67922 28.7282 1.67922 28.754 1.67922C28.754 1.70448 28.754 1.72973 28.754 1.75498C28.7797 1.75498 28.8055 1.75498 28.8312 1.75498C28.8312 1.78023 28.8312 1.80549 28.8312 1.83074C28.857 1.83074 28.8827 1.83074 28.9085 1.83074C28.9085 1.85599 28.9085 1.88124 28.9085 1.9065C28.9881 1.89883 29.0308 1.9325 29.0373 2.00751C29.063 2.00751 29.0888 2.00751 29.1145 2.00751C29.1145 2.03276 29.1145 2.05801 29.1145 2.08326C29.1488 2.08326 29.1833 2.08326 29.2175 2.08326C29.2175 2.10852 29.2175 2.13377 29.2175 2.15902C29.2433 2.15902 29.2691 2.15902 29.2948 2.15902C29.2948 2.18427 29.2948 2.20953 29.2948 2.23478C29.3206 2.23478 29.3463 2.23478 29.3721 2.23478C29.3721 2.26003 29.3721 2.28528 29.3721 2.31054C29.3978 2.31054 29.4236 2.31054 29.4493 2.31054C29.4455 2.3371 29.4498 2.36236 29.4622 2.38629C29.5807 2.50746 29.7094 2.6169 29.8485 2.71458C29.8609 2.73852 29.8653 2.76377 29.8614 2.79033C29.8871 2.79033 29.9129 2.79033 29.9387 2.79033C29.9387 2.81559 29.9387 2.84084 29.9387 2.86609C29.9644 2.86609 29.9902 2.86609 30.0159 2.86609C30.0159 2.89135 30.0159 2.9166 30.0159 2.94185C30.0417 2.94185 30.0674 2.94185 30.0932 2.94185C30.0932 2.9671 30.0932 2.99236 30.0932 3.01761C30.1189 3.01761 30.1447 3.01761 30.1704 3.01761C30.1704 3.04286 30.1704 3.06811 30.1704 3.09337C30.1975 3.0896 30.2232 3.09379 30.2477 3.10599C30.3296 3.19887 30.4154 3.28725 30.5052 3.37114C30.5264 3.39352 30.5521 3.40193 30.5825 3.3964C30.5825 3.43006 30.5825 3.46374 30.5825 3.49741C30.6083 3.49741 30.634 3.49741 30.6598 3.49741C30.6598 3.52266 30.6598 3.54791 30.6598 3.57316C30.6855 3.57316 30.7113 3.57316 30.737 3.57316C30.737 3.59842 30.737 3.62367 30.737 3.64892C30.7628 3.64892 30.7885 3.64892 30.8143 3.64892C30.8143 3.67417 30.8143 3.69943 30.8143 3.72468C30.84 3.72468 30.8658 3.72468 30.8915 3.72468C30.8915 3.74993 30.8915 3.77518 30.8915 3.80044C30.9258 3.80044 30.9603 3.80044 30.9946 3.80044C30.9946 3.82569 30.9946 3.85094 30.9946 3.87619C31.0203 3.87619 31.0461 3.87619 31.0718 3.87619C31.0718 3.90145 31.0718 3.9267 31.0718 3.95195C31.0976 3.95195 31.1233 3.95195 31.1491 3.95195C31.1491 3.9772 31.1491 4.00246 31.1491 4.02771C31.1748 4.02771 31.2006 4.02771 31.2263 4.02771C31.2263 4.05296 31.2263 4.07821 31.2263 4.10347C31.2521 4.10347 31.2779 4.10347 31.3036 4.10347C31.3036 4.13713 31.3036 4.17081 31.3036 4.20448C31.3294 4.20448 31.3551 4.20448 31.3809 4.20448C31.3809 4.22973 31.3809 4.25498 31.3809 4.28023C31.4066 4.28023 31.4324 4.28023 31.4581 4.28023C31.4581 4.30549 31.4581 4.33074 31.4581 4.35599C31.4924 4.35599 31.5269 4.35599 31.5611 4.35599C31.6042 4.46541 31.6814 4.54117 31.7929 4.58326C31.7929 4.60852 31.7929 4.63377 31.7929 4.65902C31.8187 4.65902 31.8444 4.65902 31.8702 4.65902C31.8702 4.68427 31.8702 4.70953 31.8702 4.73478C31.8959 4.73478 31.9217 4.73478 31.9474 4.73478C31.9474 4.76003 31.9474 4.78528 31.9474 4.81054C31.9732 4.81054 31.999 4.81054 32.0247 4.81054C32.0247 4.8442 32.0247 4.87789 32.0247 4.91155C32.0505 4.91155 32.0762 4.91155 32.102 4.91155C32.102 4.9368 32.102 4.96205 32.102 4.9873C32.1277 4.9873 32.1535 4.9873 32.1792 4.9873C32.1792 5.01256 32.1792 5.03781 32.1792 5.06306C32.2135 5.06306 32.248 5.06306 32.2822 5.06306C32.3253 5.17248 32.4025 5.24824 32.514 5.29033C32.514 5.31559 32.514 5.34084 32.514 5.36609C32.5398 5.36609 32.5655 5.36609 32.5913 5.36609C32.5913 5.39135 32.5913 5.4166 32.5913 5.44185C32.617 5.44185 32.6428 5.44185 32.6686 5.44185C32.6686 5.4671 32.6686 5.49235 32.6686 5.51761C32.6943 5.51761 32.7201 5.51761 32.7458 5.51761C32.7458 5.55127 32.7458 5.58496 32.7458 5.61862C32.7716 5.61862 32.7973 5.61862 32.8231 5.61862C32.8231 5.64387 32.8231 5.66912 32.8231 5.69438C32.8488 5.69438 32.8746 5.69438 32.9003 5.69438C32.9003 5.71963 32.9003 5.74488 32.9003 5.77013C32.9261 5.77013 32.9518 5.77013 32.9776 5.77013C32.9776 5.79539 32.9776 5.82064 32.9776 5.84589C33.0119 5.84589 33.0464 5.84589 33.0806 5.84589C33.0806 5.87114 33.0806 5.8964 33.0806 5.92165C33.1064 5.92165 33.1321 5.92165 33.1579 5.92165C33.1579 5.9469 33.1579 5.97215 33.1579 5.99741C33.1836 5.99741 33.2094 5.99741 33.2351 5.99741C33.2351 6.02266 33.2351 6.04791 33.2351 6.07316C33.2609 6.07316 33.2866 6.07316 33.3124 6.07316C33.3124 6.09842 33.3124 6.12367 33.3124 6.14892C33.3382 6.14892 33.3639 6.14892 33.3897 6.14892C33.3897 6.17417 33.3897 6.19943 33.3897 6.22468C33.4154 6.22468 33.4412 6.22468 33.4669 6.22468C33.4669 6.25834 33.4669 6.29203 33.4669 6.32569C33.4927 6.32569 33.5184 6.32569 33.5442 6.32569C33.5442 6.35094 33.5442 6.37619 33.5442 6.40145C33.5699 6.40145 33.5957 6.40145 33.6214 6.40145C33.6214 6.4267 33.6214 6.45195 33.6214 6.4772C33.6472 6.4772 33.673 6.4772 33.6987 6.4772C33.6987 6.50246 33.6987 6.52771 33.6987 6.55296C33.733 6.55296 33.7675 6.55296 33.8017 6.55296C33.8017 6.57821 33.8017 6.60347 33.8017 6.62872C33.8275 6.62872 33.8532 6.62872 33.879 6.62872C33.879 6.65397 33.879 6.67922 33.879 6.70448C33.9047 6.70448 33.9305 6.70448 33.9562 6.70448C33.9562 6.72973 33.9562 6.75498 33.9562 6.78023C33.982 6.78023 34.0077 6.78023 34.0335 6.78023C34.0335 6.80549 34.0335 6.83074 34.0335 6.85599C34.0593 6.85599 34.085 6.85599 34.1108 6.85599C34.1108 6.88124 34.1108 6.9065 34.1108 6.93175C34.1365 6.93175 34.1623 6.93175 34.188 6.93175C34.188 6.96541 34.188 6.9991 34.188 7.03276C34.2138 7.03276 34.2395 7.03276 34.2653 7.03276C34.2653 7.05801 34.2653 7.08326 34.2653 7.10852C34.291 7.10852 34.3168 7.10852 34.3425 7.10852C34.3425 7.13377 34.3425 7.15902 34.3425 7.18427C34.3683 7.18427 34.3941 7.18427 34.4198 7.18427C34.4198 7.20953 34.4198 7.23478 34.4198 7.26003C34.4541 7.26003 34.4886 7.26003 34.5228 7.26003C34.5228 7.28528 34.5228 7.31054 34.5228 7.33579C34.5486 7.33579 34.5743 7.33579 34.6001 7.33579C34.6001 7.36104 34.6001 7.38629 34.6001 7.41155C34.6258 7.41155 34.6516 7.41155 34.6773 7.41155C34.6773 7.4368 34.6773 7.46205 34.6773 7.4873C34.7031 7.4873 34.7289 7.4873 34.7546 7.4873C34.7546 7.51256 34.7546 7.53781 34.7546 7.56306C34.7804 7.56306 34.8061 7.56306 34.8319 7.56306C34.8319 7.58831 34.8319 7.61357 34.8319 7.63882C34.8576 7.63882 34.8834 7.63882 34.9091 7.63882C34.9091 7.67248 34.9091 7.70617 34.9091 7.73983C34.9349 7.73983 34.9606 7.73983 34.9864 7.73983C34.9864 7.76508 34.9864 7.79033 34.9864 7.81559C35.0121 7.81559 35.0379 7.81559 35.0637 7.81559C35.0637 7.84084 35.0637 7.86609 35.0637 7.89135C35.0894 7.89135 35.1152 7.89135 35.1409 7.89135C35.1409 7.9166 35.1409 7.94185 35.1409 7.9671C35.1752 7.9671 35.2097 7.9671 35.2439 7.9671C35.2439 7.99236 35.2439 8.01761 35.2439 8.04286C35.2697 8.04286 35.2954 8.04286 35.3212 8.04286C35.3212 8.06811 35.3212 8.09336 35.3212 8.11862C35.3469 8.11862 35.3727 8.11862 35.3985 8.11862C35.3985 8.14387 35.3985 8.16912 35.3985 8.19438C35.4242 8.19438 35.45 8.19438 35.4757 8.19438C35.4757 8.21963 35.4757 8.24488 35.4757 8.27013C35.5015 8.27013 35.5272 8.27013 35.553 8.27013C35.553 8.29539 35.553 8.32064 35.553 8.34589C35.5787 8.34589 35.6045 8.34589 35.6302 8.34589C35.6302 8.37114 35.6302 8.3964 35.6302 8.42165C35.656 8.42165 35.6817 8.42165 35.7075 8.42165C35.7075 8.45531 35.7075 8.489 35.7075 8.52266C35.7333 8.52266 35.759 8.52266 35.7848 8.52266C35.7848 8.54791 35.7848 8.57316 35.7848 8.59842C35.8105 8.59842 35.8363 8.59842 35.862 8.59842C35.862 8.62367 35.862 8.64892 35.862 8.67417C35.8963 8.67417 35.9308 8.67417 35.965 8.67417C35.965 8.69943 35.965 8.72468 35.965 8.74993C35.9908 8.74993 36.0165 8.74993 36.0423 8.74993C36.0423 8.77518 36.0423 8.80044 36.0423 8.82569C36.0681 8.82569 36.0938 8.82569 36.1196 8.82569C36.1196 8.85094 36.1196 8.87619 36.1196 8.90145C36.1453 8.90145 36.1711 8.90145 36.1968 8.90145C36.1968 8.9267 36.1968 8.95195 36.1968 8.9772C36.2226 8.9772 36.2483 8.9772 36.2741 8.9772C36.2741 9.00246 36.2741 9.02771 36.2741 9.05296C36.2998 9.05296 36.3256 9.05296 36.3513 9.05296C36.3513 9.07821 36.3513 9.10347 36.3513 9.12872C36.3771 9.12872 36.4029 9.12872 36.4286 9.12872C36.4286 9.16238 36.4286 9.19607 36.4286 9.22973C36.4544 9.22973 36.4801 9.22973 36.5059 9.22973C36.5059 9.25498 36.5059 9.28023 36.5059 9.30549C36.5316 9.30549 36.5574 9.30549 36.5831 9.30549C36.5831 9.33074 36.5831 9.35599 36.5831 9.38124C36.6174 9.38124 36.6519 9.38124 36.6861 9.38124C36.6861 9.4065 36.6861 9.43175 36.6861 9.457C36.7119 9.457 36.7376 9.457 36.7634 9.457C36.7634 9.48225 36.7634 9.50751 36.7634 9.53276C36.7892 9.53276 36.8149 9.53276 36.8407 9.53276C36.8407 9.55801 36.8407 9.58326 36.8407 9.60852C36.8664 9.60852 36.8922 9.60852 36.9179 9.60852C36.9179 9.63377 36.9179 9.65902 36.9179 9.68427C36.9437 9.68427 36.9694 9.68427 36.9952 9.68427C36.9952 9.70953 36.9952 9.73478 36.9952 9.76003C37.0209 9.76003 37.0467 9.76003 37.0724 9.76003C37.0724 9.78528 37.0724 9.81054 37.0724 9.83579C37.0982 9.83579 37.124 9.83579 37.1497 9.83579C37.1497 9.86945 37.1497 9.90314 37.1497 9.9368C37.1755 9.9368 37.2012 9.9368 37.227 9.9368C37.227 18.7331 37.227 27.5295 37.227 36.3257C37.2012 36.3257 37.1755 36.3257 37.1497 36.3257C37.1497 36.4855 37.1497 36.6456 37.1497 36.8055C37.124 36.8055 37.0982 36.8055 37.0724 36.8055C37.0724 36.9065 37.0724 37.0075 37.0724 37.1085C37.0467 37.1085 37.0209 37.1085 36.9952 37.1085C36.9993 37.1848 36.9952 37.2605 36.9823 37.3358C36.9282 37.3812 36.9066 37.4403 36.9179 37.5126C36.8922 37.5126 36.8664 37.5126 36.8407 37.5126C36.8407 37.5631 36.8407 37.6136 36.8407 37.6641C36.8149 37.6641 36.7892 37.6641 36.7634 37.6641C36.7688 37.7742 36.7431 37.8752 36.6861 37.9671C36.6519 37.9671 36.6174 37.9671 36.5831 37.9671C36.5831 38.0259 36.5831 38.085 36.5831 38.1439C36.5574 38.1439 36.5316 38.1439 36.5059 38.1439C36.5059 38.1691 36.5059 38.1944 36.5059 38.2196C36.4801 38.2196 36.4544 38.2196 36.4286 38.2196C36.4286 38.2701 36.4286 38.3206 36.4286 38.3711C36.4029 38.3711 36.3771 38.3711 36.3513 38.3711C36.3513 38.3964 36.3513 38.4216 36.3513 38.4469C36.3256 38.4469 36.2998 38.4469 36.2741 38.4469C36.2481 38.5229 36.2223 38.5987 36.1968 38.6742C36.1711 38.6742 36.1453 38.6742 36.1196 38.6742C36.1196 38.7078 36.1196 38.7416 36.1196 38.7752C36.0938 38.7752 36.0681 38.7752 36.0423 38.7752C36.0423 38.8004 36.0423 38.8257 36.0423 38.8509C36.0165 38.8509 35.9908 38.8509 35.965 38.8509C35.965 38.8762 35.965 38.9014 35.965 38.9267C35.9308 38.9267 35.8963 38.9267 35.862 38.9267C35.862 38.952 35.862 38.9772 35.862 39.0025C35.8363 39.0025 35.8105 39.0025 35.7848 39.0025C35.7848 39.0277 35.7848 39.053 35.7848 39.0782C35.759 39.0782 35.7333 39.0782 35.7075 39.0782C35.7075 39.1035 35.7075 39.1287 35.7075 39.154C35.656 39.154 35.6045 39.154 35.553 39.154C35.553 39.1792 35.553 39.2045 35.553 39.2297C35.5272 39.2297 35.5015 39.2297 35.4757 39.2297C35.4757 39.255 35.4757 39.2802 35.4757 39.3055C35.45 39.3055 35.4242 39.3055 35.3985 39.3055C35.3985 39.3307 35.3985 39.356 35.3985 39.3812C35.3469 39.3812 35.2954 39.3812 35.2439 39.3812C35.2483 39.4146 35.2398 39.4441 35.2182 39.4696C35.1486 39.5194 35.0714 39.5489 34.9864 39.558C34.9864 39.5833 34.9864 39.6085 34.9864 39.6338C34.9349 39.6338 34.8834 39.6338 34.8319 39.6338C34.8319 39.659 34.8319 39.6843 34.8319 39.7095C34.7804 39.7095 34.7289 39.7095 34.6773 39.7095C34.6773 39.7348 34.6773 39.76 34.6773 39.7853C34.6037 39.7742 34.5434 39.7954 34.4971 39.8484C34.4203 39.861 34.3431 39.8651 34.2653 39.861C34.2653 39.8863 34.2653 39.9115 34.2653 39.9368C34.1749 39.9229 34.0976 39.9396 34.0335 39.9873C25.7494 39.9873 17.4653 39.9873 9.18112 39.9873C9.09023 39.9388 8.98722 39.9219 8.87207 39.9368C8.87207 39.9115 8.87207 39.8863 8.87207 39.861C8.81199 39.861 8.75188 39.861 8.69179 39.861C8.69179 39.8358 8.69179 39.8105 8.69179 39.7853C8.61453 39.7853 8.53727 39.7853 8.46001 39.7853C8.46001 39.76 8.46001 39.7348 8.46001 39.7095C8.4085 39.7095 8.357 39.7095 8.30549 39.7095C8.30549 39.6843 8.30549 39.659 8.30549 39.6338C8.25398 39.6338 8.20247 39.6338 8.15097 39.6338C8.15097 39.6085 8.15097 39.5833 8.15097 39.558C8.12521 39.558 8.09946 39.558 8.0737 39.558C8.0737 39.5328 8.0737 39.5075 8.0737 39.4823C8.0215 39.4863 7.96999 39.4823 7.91918 39.4696C7.89762 39.4441 7.88905 39.4146 7.89343 39.3812C7.86767 39.3812 7.84192 39.3812 7.81617 39.3812C7.81617 39.356 7.81617 39.3307 7.81617 39.3055C7.76466 39.3055 7.71315 39.3055 7.66164 39.3055C7.66164 39.2802 7.66164 39.255 7.66164 39.2297C7.63589 39.2297 7.61014 39.2297 7.58438 39.2297C7.58438 39.2045 7.58438 39.1792 7.58438 39.154C7.55863 39.154 7.53287 39.154 7.50712 39.154C7.50712 39.1287 7.50712 39.1035 7.50712 39.0782C7.48137 39.0782 7.45561 39.0782 7.42986 39.0782C7.42986 39.053 7.42986 39.0277 7.42986 39.0025C7.40411 39.0025 7.37835 39.0025 7.3526 39.0025C7.3526 38.9772 7.3526 38.952 7.3526 38.9267C7.3004 38.9307 7.24889 38.9267 7.19808 38.9141C7.14121 38.8431 7.10688 38.7631 7.09506 38.6742C7.06931 38.6742 7.04355 38.6742 7.0178 38.6742C7.0178 38.6489 7.0178 38.6237 7.0178 38.5984C6.99205 38.5984 6.96629 38.5984 6.94054 38.5984C6.94054 38.5732 6.94054 38.5479 6.94054 38.5227C6.91478 38.5227 6.88903 38.5227 6.86328 38.5227C6.86328 38.4974 6.86328 38.4722 6.86328 38.4469C6.83752 38.4469 6.81177 38.4469 6.78602 38.4469C6.78602 38.3964 6.78602 38.3459 6.78602 38.2954C6.76026 38.2954 6.73451 38.2954 6.70875 38.2954C6.70875 38.2701 6.70875 38.2449 6.70875 38.2196C6.683 38.2196 6.65725 38.2196 6.63149 38.2196C6.63149 38.1691 6.63149 38.1186 6.63149 38.0681C6.60574 38.0681 6.57998 38.0681 6.55423 38.0681C6.55423 38.0345 6.55423 38.0007 6.55423 37.9671C6.5199 37.9671 6.48555 37.9671 6.45122 37.9671C6.45122 37.9166 6.45122 37.8661 6.45122 37.8156C6.42546 37.8156 6.39971 37.8156 6.37395 37.8156C6.37395 37.7651 6.37395 37.7146 6.37395 37.6641C6.3482 37.6641 6.32245 37.6641 6.29669 37.6641C6.29669 37.6052 6.29669 37.5461 6.29669 37.4873C6.27094 37.4873 6.24519 37.4873 6.21943 37.4873C6.21943 37.4199 6.21943 37.3527 6.21943 37.2853C6.19368 37.2853 6.16792 37.2853 6.14217 37.2853C6.14217 37.2012 6.14217 37.1168 6.14217 37.0328C6.11642 37.0328 6.09066 37.0328 6.06491 37.0328C6.06491 36.9317 6.06491 36.8307 6.06491 36.7297C6.03916 36.7297 6.0134 36.7297 5.98765 36.7297C5.98765 36.4941 5.98765 36.2583 5.98765 36.0227C5.96189 36.0227 5.93614 36.0227 5.91039 36.0227C5.91039 35.3408 5.91039 34.659 5.91039 33.9772C5.75563 33.9815 5.60111 33.9772 5.44682 33.9646C5.43505 33.9542 5.42645 33.9416 5.42107 33.9267C5.28478 33.9017 5.14743 33.8931 5.00901 33.9014C5.00901 33.8762 5.00901 33.8509 5.00901 33.8257C4.93174 33.8257 4.85448 33.8257 4.77722 33.8257C4.77722 33.8004 4.77722 33.7752 4.77722 33.7499C4.72571 33.7499 4.67421 33.7499 4.6227 33.7499C4.6227 33.7163 4.6227 33.6825 4.6227 33.6489C4.57119 33.6489 4.51968 33.6489 4.46818 33.6489C4.46818 33.6237 4.46818 33.5984 4.46818 33.5732C4.44242 33.5732 4.41667 33.5732 4.39091 33.5732C4.39091 33.5479 4.39091 33.5227 4.39091 33.4974C4.35658 33.4974 4.32223 33.4974 4.2879 33.4974C4.2879 33.4722 4.2879 33.4469 4.2879 33.4216C4.26215 33.4216 4.23639 33.4216 4.21064 33.4216C4.21064 33.3964 4.21064 33.3711 4.21064 33.3459C4.18488 33.3459 4.15913 33.3459 4.13338 33.3459C4.13338 33.3206 4.13338 33.2954 4.13338 33.2701C4.10762 33.2701 4.08187 33.2701 4.05612 33.2701C4.05612 33.2196 4.05612 33.1691 4.05612 33.1186C4.03036 33.1186 4.00461 33.1186 3.97885 33.1186C3.97885 33.0598 3.97885 33.0007 3.97885 32.9418C3.9531 32.9418 3.92735 32.9418 3.90159 32.9418C3.90159 32.8913 3.90159 32.8408 3.90159 32.7903C3.87584 32.7903 3.85009 32.7903 3.82433 32.7903C3.82433 32.6893 3.82433 32.5883 3.82433 32.4873C3.79858 32.4873 3.77282 32.4873 3.74707 32.4873C3.74707 28.7921 3.74707 25.0967 3.74707 21.4014C3.77282 21.4014 3.79858 21.4014 3.82433 21.4014C3.82433 21.292 3.82433 21.1826 3.82433 21.0732C3.85009 21.0732 3.87584 21.0732 3.90159 21.0732C3.90159 21.0227 3.90159 20.9722 3.90159 20.9216C3.92735 20.9216 3.9531 20.9216 3.97885 20.9216C3.97885 20.8711 3.97885 20.8206 3.97885 20.7701C4.00461 20.7701 4.03036 20.7701 4.05612 20.7701C4.07765 20.6841 4.1034 20.5999 4.13338 20.5176C4.15913 20.5176 4.18488 20.5176 4.21064 20.5176C4.21064 20.4924 4.21064 20.4671 4.21064 20.4419C4.23639 20.4419 4.26215 20.4419 4.2879 20.4419C4.2879 20.4166 4.2879 20.3913 4.2879 20.3661C4.32223 20.3661 4.35658 20.3661 4.39091 20.3661C4.39091 20.3408 4.39091 20.3156 4.39091 20.2903C4.44242 20.2903 4.49393 20.2903 4.54544 20.2903C4.54544 20.2651 4.54544 20.2398 4.54544 20.2146C4.57119 20.2146 4.59694 20.2146 4.6227 20.2146C4.6227 20.1893 4.6227 20.1641 4.6227 20.1388C4.67421 20.1388 4.72571 20.1388 4.77722 20.1388C4.77722 20.1136 4.77722 20.0883 4.77722 20.0631C4.85448 20.0631 4.93174 20.0631 5.00901 20.0631C5.00901 20.0378 5.00901 20.0126 5.00901 19.9873C5.30947 19.9873 5.60992 19.9873 5.91039 19.9873C5.91039 14.6422 5.91039 9.29708 5.91039 3.95195C5.93614 3.95195 5.96189 3.95195 5.98765 3.95195C5.98765 3.71627 5.98765 3.48056 5.98765 3.24488C6.0134 3.24488 6.03916 3.24488 6.06491 3.24488C6.06491 3.14387 6.06491 3.04286 6.06491 2.94185C6.09066 2.94185 6.11642 2.94185 6.14217 2.94185C6.14217 2.85768 6.14217 2.77349 6.14217 2.68932C6.16792 2.68932 6.19368 2.68932 6.21943 2.68932C6.21943 2.61357 6.21943 2.53781 6.21943 2.46205C6.24519 2.46205 6.27094 2.46205 6.29669 2.46205C6.29669 2.41155 6.29669 2.36104 6.29669 2.31054C6.32245 2.31054 6.3482 2.31054 6.37395 2.31054C6.37395 2.26003 6.37395 2.20953 6.37395 2.15902C6.39971 2.15902 6.42546 2.15902 6.45122 2.15902C6.45122 2.10852 6.45122 2.05801 6.45122 2.00751C6.48555 2.00751 6.5199 2.00751 6.55423 2.00751C6.55423 1.97384 6.55423 1.94017 6.55423 1.9065C6.57998 1.9065 6.60574 1.9065 6.63149 1.9065C6.63149 1.85599 6.63149 1.80549 6.63149 1.75498C6.65725 1.75498 6.683 1.75498 6.70875 1.75498C6.70875 1.72973 6.70875 1.70448 6.70875 1.67922C6.73451 1.67922 6.76026 1.67922 6.78602 1.67922C6.78602 1.62872 6.78602 1.57821 6.78602 1.52771C6.81177 1.52771 6.83752 1.52771 6.86328 1.52771C6.86328 1.50246 6.86328 1.4772 6.86328 1.45195C6.88903 1.45195 6.91478 1.45195 6.94054 1.45195C6.94054 1.4267 6.94054 1.40145 6.94054 1.37619C6.96629 1.37619 6.99205 1.37619 7.0178 1.37619C7.0178 1.35094 7.0178 1.32569 7.0178 1.30044C7.04355 1.30044 7.06931 1.30044 7.09506 1.30044C7.09506 1.26677 7.09506 1.2331 7.09506 1.19943C7.17951 1.18603 7.21386 1.13552 7.19808 1.04791C7.24958 1.04791 7.30109 1.04791 7.3526 1.04791C7.3526 1.02266 7.3526 0.997406 7.3526 0.972153C7.37835 0.972153 7.40411 0.972153 7.42986 0.972153C7.42986 0.946901 7.42986 0.921648 7.42986 0.896396C7.45561 0.896396 7.48137 0.896396 7.50712 0.896396C7.50712 0.871143 7.50712 0.845891 7.50712 0.820638C7.53287 0.820638 7.55863 0.820638 7.58438 0.820638C7.58438 0.795385 7.58438 0.770133 7.58438 0.74488C7.61014 0.74488 7.63589 0.74488 7.66164 0.74488C7.66164 0.719628 7.66164 0.694375 7.66164 0.669123C7.71315 0.669123 7.76466 0.669123 7.81617 0.669123C7.81617 0.64387 7.81617 0.618618 7.81617 0.593365C7.84192 0.593365 7.86767 0.593365 7.89343 0.593365C7.88905 0.559979 7.89762 0.530519 7.91918 0.504981C7.96999 0.492469 8.0215 0.488262 8.0737 0.492355C8.0737 0.467103 8.0737 0.44185 8.0737 0.416598C8.09946 0.416598 8.12521 0.416598 8.15097 0.416598C8.15097 0.391345 8.15097 0.366093 8.15097 0.34084C8.20247 0.34084 8.25398 0.34084 8.30549 0.34084C8.30549 0.315588 8.30549 0.290335 8.30549 0.265082C8.357 0.265082 8.4085 0.265082 8.46001 0.265082C8.46001 0.23983 8.46001 0.214577 8.46001 0.189325C8.53727 0.189325 8.61453 0.189325 8.69179 0.189325C8.69179 0.164072 8.69179 0.13882 8.69179 0.113567C8.75188 0.113567 8.81199 0.113567 8.87207 0.113567C8.87207 0.0883148 8.87207 0.0630623 8.87207 0.0378097C8.98722 0.0526943 9.09023 0.0358595 9.18112 -0.0126953ZM34.4198 33.1691C34.4198 33.6658 34.4198 34.1623 34.4198 34.659C34.4456 34.659 34.4713 34.659 34.4971 34.659C34.4971 35.0547 34.4971 35.4502 34.4971 35.8459C34.4713 35.8459 34.4456 35.8459 34.4198 35.8459C34.4198 35.9722 34.4198 36.0984 34.4198 36.2247C34.3941 36.2247 34.3683 36.2247 34.3425 36.2247C34.3284 36.3083 34.3199 36.3924 34.3168 36.4772C34.291 36.4772 34.2653 36.4772 34.2395 36.4772C34.2395 36.5277 34.2395 36.5782 34.2395 36.6287C34.2138 36.6287 34.188 36.6287 34.1623 36.6287C34.1623 36.654 34.1623 36.6792 34.1623 36.7045C34.1365 36.7045 34.1108 36.7045 34.085 36.7045C34.085 36.755 34.085 36.8055 34.085 36.856C34.0593 36.856 34.0335 36.856 34.0077 36.856C34.0077 36.8812 34.0077 36.9065 34.0077 36.9317C33.982 36.9317 33.9562 36.9317 33.9305 36.9317C33.9305 36.957 33.9305 36.9823 33.9305 37.0075C33.9047 37.0075 33.879 37.0075 33.8532 37.0075C33.8532 37.0328 33.8532 37.058 33.8532 37.0833C33.8017 37.0833 33.7502 37.0833 33.6987 37.0833C33.6987 37.1168 33.6987 37.1507 33.6987 37.1843C33.6645 37.1843 33.6299 37.1843 33.5957 37.1843C33.5957 37.2095 33.5957 37.2348 33.5957 37.26C33.5442 37.26 33.4927 37.26 33.4412 37.26C33.4412 37.2853 33.4412 37.3105 33.4412 37.3358C33.3382 37.3358 33.2351 37.3358 33.1321 37.3358C33.1321 37.361 33.1321 37.3863 33.1321 37.4115C25.4232 37.4115 17.7142 37.4115 10.0052 37.4115C10.0052 37.3863 10.0052 37.361 10.0052 37.3358C9.92798 37.3358 9.85071 37.3358 9.77345 37.3358C9.77345 37.3105 9.77345 37.2853 9.77345 37.26C9.72194 37.26 9.67044 37.26 9.61893 37.26C9.61893 37.2348 9.61893 37.2095 9.61893 37.1843C9.55885 37.1843 9.49874 37.1843 9.43865 37.1843C9.43865 37.1507 9.43865 37.1168 9.43865 37.0833C9.4129 37.0833 9.38715 37.0833 9.36139 37.0833C9.36139 37.058 9.36139 37.0328 9.36139 37.0075C9.28431 36.9825 9.20705 36.9573 9.12961 36.9317C9.12961 36.8812 9.12961 36.8307 9.12961 36.7802C9.10385 36.7802 9.0781 36.7802 9.05235 36.7802C9.05235 36.755 9.05235 36.7297 9.05235 36.7045C9.02659 36.7045 9.00084 36.7045 8.97509 36.7045C8.97509 36.654 8.97509 36.6035 8.97509 36.553C8.94933 36.553 8.92358 36.553 8.89782 36.553C8.89782 36.5277 8.89782 36.5025 8.89782 36.4772C8.86349 36.4772 8.82914 36.4772 8.79481 36.4772C8.79481 36.3679 8.79481 36.2583 8.79481 36.1489C8.76906 36.1489 8.7433 36.1489 8.71755 36.1489C8.71755 35.4249 8.71755 34.7012 8.71755 33.9772C15.714 33.9772 22.7104 33.9772 29.7069 33.9772C29.7069 33.952 29.7069 33.9267 29.7069 33.9014C29.8617 33.9057 30.0162 33.9014 30.1704 33.8888C30.2168 33.8358 30.2771 33.8146 30.3507 33.8257C30.3507 33.8004 30.3507 33.7752 30.3507 33.7499C30.4022 33.7499 30.4537 33.7499 30.5052 33.7499C30.5052 33.7163 30.5052 33.6825 30.5052 33.6489C30.5567 33.6489 30.6083 33.6489 30.6598 33.6489C30.6598 33.6237 30.6598 33.5984 30.6598 33.5732C30.6855 33.5732 30.7113 33.5732 30.737 33.5732C30.737 33.5479 30.737 33.5227 30.737 33.4974C30.7713 33.4974 30.8058 33.4974 30.84 33.4974C30.84 33.4722 30.84 33.4469 30.84 33.4216C30.8658 33.4216 30.8915 33.4216 30.9173 33.4216C30.9173 33.3964 30.9173 33.3711 30.9173 33.3459C30.9431 33.3459 30.9688 33.3459 30.9946 33.3459C30.9946 33.3206 30.9946 33.2954 30.9946 33.2701C31.0203 33.2701 31.0461 33.2701 31.0718 33.2701C31.0718 33.2449 31.0718 33.2196 31.0718 33.1944C31.0976 33.1944 31.1233 33.1944 31.1491 33.1944C31.1491 33.1439 31.1491 33.0934 31.1491 33.0429C31.1748 33.0429 31.2006 33.0429 31.2263 33.0429C31.2263 32.984 31.2263 32.9249 31.2263 32.8661C31.2521 32.8661 31.2779 32.8661 31.3036 32.8661C31.3036 32.7903 31.3036 32.7146 31.3036 32.6388C31.3294 32.6388 31.3551 32.6388 31.3809 32.6388C31.3809 28.834 31.3809 25.0294 31.3809 21.2247C31.3551 21.2247 31.3294 21.2247 31.3036 21.2247C31.3036 21.1489 31.3036 21.0732 31.3036 20.9974C31.2779 20.9974 31.2521 20.9974 31.2263 20.9974C31.2263 20.9469 31.2263 20.8964 31.2263 20.8459C31.2006 20.8459 31.1748 20.8459 31.1491 20.8459C31.1491 20.7954 31.1491 20.7449 31.1491 20.6944C31.1233 20.6944 31.0976 20.6944 31.0718 20.6944C31.0718 20.6607 31.0718 20.627 31.0718 20.5934C31.0461 20.5934 31.0203 20.5934 30.9946 20.5934C30.9946 20.5681 30.9946 20.5429 30.9946 20.5176C30.9688 20.5176 30.9431 20.5176 30.9173 20.5176C30.9173 20.4924 30.9173 20.4671 30.9173 20.4419C30.8915 20.4419 30.8658 20.4419 30.84 20.4419C30.84 20.4166 30.84 20.3913 30.84 20.3661C30.8058 20.3661 30.7713 20.3661 30.737 20.3661C30.737 20.3408 30.737 20.3156 30.737 20.2903C30.7113 20.2903 30.6855 20.2903 30.6598 20.2903C30.6598 20.2651 30.6598 20.2398 30.6598 20.2146C30.6083 20.2146 30.5567 20.2146 30.5052 20.2146C30.5052 20.1893 30.5052 20.1641 30.5052 20.1388C30.4537 20.1388 30.4022 20.1388 30.3507 20.1388C30.3507 20.1136 30.3507 20.0883 30.3507 20.0631C30.2735 20.0631 30.1962 20.0631 30.1189 20.0631C30.1189 20.0378 30.1189 20.0126 30.1189 19.9873C22.9851 19.9873 15.8513 19.9873 8.71755 19.9873C8.71755 14.6001 8.71755 9.21288 8.71755 3.82569C8.7433 3.82569 8.76906 3.82569 8.79481 3.82569C8.79481 3.74152 8.79481 3.65733 8.79481 3.57316C8.82056 3.57316 8.84632 3.57316 8.87207 3.57316C8.88065 3.52266 8.88925 3.47215 8.89782 3.42165C8.92358 3.42165 8.94933 3.42165 8.97509 3.42165C8.97509 3.37114 8.97509 3.32064 8.97509 3.27013C9.00084 3.27013 9.02659 3.27013 9.05235 3.27013C9.05235 3.24488 9.05235 3.21963 9.05235 3.19438C9.0781 3.19438 9.10385 3.19438 9.12961 3.19438C9.14622 3.06023 9.22348 2.98448 9.36139 2.9671C9.36139 2.94185 9.36139 2.9166 9.36139 2.89135C9.38715 2.89135 9.4129 2.89135 9.43865 2.89135C9.43865 2.85768 9.43865 2.824 9.43865 2.79033C9.49874 2.79033 9.55885 2.79033 9.61893 2.79033C9.61893 2.76508 9.61893 2.73983 9.61893 2.71458C9.67044 2.71458 9.72194 2.71458 9.77345 2.71458C9.77345 2.68932 9.77345 2.66407 9.77345 2.63882C9.85071 2.63882 9.92798 2.63882 10.0052 2.63882C10.0052 2.61357 10.0052 2.58831 10.0052 2.56306C15.259 2.56306 20.5128 2.56306 25.7665 2.56306C25.7665 4.5496 25.7665 6.53612 25.7665 8.52266C25.7923 8.52266 25.8181 8.52266 25.8438 8.52266C25.8438 8.65733 25.8438 8.79203 25.8438 8.9267C25.8696 8.9267 25.8953 8.9267 25.9211 8.9267C25.9211 9.00246 25.9211 9.07821 25.9211 9.15397C25.9468 9.15397 25.9726 9.15397 25.9983 9.15397C25.9942 9.23018 25.9983 9.30594 26.0112 9.38124C26.0552 9.40165 26.0766 9.43531 26.0756 9.48225C26.1013 9.48225 26.1271 9.48225 26.1529 9.48225C26.1529 9.53276 26.1529 9.58326 26.1529 9.63377C26.1786 9.63377 26.2044 9.63377 26.2301 9.63377C26.2301 9.68427 26.2301 9.73478 26.2301 9.78528C26.2644 9.78528 26.2989 9.78528 26.3331 9.78528C26.3331 9.81054 26.3331 9.83579 26.3331 9.86104C26.3589 9.86104 26.3846 9.86104 26.4104 9.86104C26.4104 9.91155 26.4104 9.96205 26.4104 10.0126C26.4361 10.0126 26.4619 10.0126 26.4876 10.0126C26.4876 10.0462 26.4876 10.0799 26.4876 10.1136C26.5134 10.1136 26.5392 10.1136 26.5649 10.1136C26.5649 10.1388 26.5649 10.1641 26.5649 10.1893C26.5907 10.1893 26.6164 10.1893 26.6422 10.1893C26.6422 10.2146 26.6422 10.2398 26.6422 10.2651C26.6679 10.2651 26.6937 10.2651 26.7194 10.2651C26.7194 10.2903 26.7194 10.3156 26.7194 10.3408C26.7452 10.3408 26.7709 10.3408 26.7967 10.3408C26.7967 10.3661 26.7967 10.3913 26.7967 10.4166C26.8446 10.4156 26.8788 10.4366 26.8997 10.4797C26.9504 10.4922 27.002 10.4964 27.0542 10.4924C27.0542 10.5176 27.0542 10.5429 27.0542 10.5681C27.08 10.5681 27.1057 10.5681 27.1315 10.5681C27.1315 10.5934 27.1315 10.6186 27.1315 10.6439C27.183 10.6439 27.2345 10.6439 27.286 10.6439C27.286 10.6775 27.286 10.7112 27.286 10.7449C27.3375 10.7449 27.389 10.7449 27.4405 10.7449C27.4405 10.7701 27.4405 10.7954 27.4405 10.8206C27.5005 10.8206 27.5521 10.8416 27.5951 10.8838C27.6546 10.8963 27.7146 10.9005 27.7753 10.8964C27.7753 10.9216 27.7753 10.9469 27.7753 10.9722C27.8526 10.9722 27.9299 10.9722 28.0071 10.9722C28.0071 10.9974 28.0071 11.0227 28.0071 11.0479C28.1701 11.0479 28.3334 11.0479 28.4964 11.0479C28.4964 11.0732 28.4964 11.0984 28.4964 11.1237C30.471 11.1237 32.4453 11.1237 34.4198 11.1237C34.4198 18.4722 34.4198 25.8206 34.4198 33.1691ZM9.12961 23.5227C9.94515 23.5227 10.7607 23.5227 11.5762 23.5227C11.5762 23.5479 11.5762 23.5732 11.5762 23.5984C11.7136 23.5984 11.8509 23.5984 11.9883 23.5984C11.9883 23.6321 11.9883 23.6658 11.9883 23.6994C12.0655 23.6994 12.1428 23.6994 12.2201 23.6994C12.2201 23.7247 12.2201 23.7499 12.2201 23.7752C12.3371 23.7803 12.4487 23.8056 12.5549 23.8509C12.5549 23.8762 12.5549 23.9014 12.5549 23.9267C12.6064 23.9267 12.6579 23.9267 12.7094 23.9267C12.7094 23.952 12.7094 23.9772 12.7094 24.0025C12.7865 24.0274 12.8637 24.0526 12.9412 24.0782C12.9412 24.1035 12.9412 24.1287 12.9412 24.154C12.9669 24.154 12.9927 24.154 13.0184 24.154C13.0184 24.1792 13.0184 24.2045 13.0184 24.2297C13.0528 24.2297 13.0871 24.2297 13.1214 24.2297C13.1214 24.255 13.1214 24.2802 13.1214 24.3055C13.1472 24.3055 13.1729 24.3055 13.1987 24.3055C13.1987 24.3391 13.1987 24.3728 13.1987 24.4065C13.2245 24.4065 13.2502 24.4065 13.276 24.4065C13.276 24.457 13.276 24.5075 13.276 24.558C13.3017 24.558 13.3275 24.558 13.3532 24.558C13.3532 24.6085 13.3532 24.659 13.3532 24.7095C13.379 24.7095 13.4047 24.7095 13.4305 24.7095C13.481 24.803 13.5067 24.904 13.5077 25.0126C13.5335 25.0126 13.5593 25.0126 13.585 25.0126C13.6158 25.2588 13.6415 25.507 13.6623 25.7575C13.6537 25.8795 13.6451 26.0017 13.6365 26.1237C13.5694 26.3497 13.5007 26.577 13.4305 26.8055C13.4047 26.8055 13.379 26.8055 13.3532 26.8055C13.3532 26.856 13.3532 26.9065 13.3532 26.957C13.3275 26.957 13.3017 26.957 13.276 26.957C13.276 27.0158 13.276 27.0749 13.276 27.1338C13.2502 27.1338 13.2245 27.1338 13.1987 27.1338C13.1987 27.159 13.1987 27.1843 13.1987 27.2095C13.1729 27.2095 13.1472 27.2095 13.1214 27.2095C13.1214 27.2348 13.1214 27.26 13.1214 27.2853C13.0871 27.2853 13.0528 27.2853 13.0184 27.2853C13.0184 27.3105 13.0184 27.3358 13.0184 27.361C12.9927 27.361 12.9669 27.361 12.9412 27.361C12.9412 27.3863 12.9412 27.4115 12.9412 27.4368C12.9154 27.4368 12.8897 27.4368 12.8639 27.4368C12.8639 27.4621 12.8639 27.4873 12.8639 27.5126C12.8382 27.5126 12.8124 27.5126 12.7866 27.5126C12.7866 27.5378 12.7866 27.5631 12.7866 27.5883C12.7351 27.5883 12.6836 27.5883 12.6321 27.5883C12.6321 27.6136 12.6321 27.6388 12.6321 27.6641C12.6064 27.6641 12.5806 27.6641 12.5549 27.6641C12.5549 27.6893 12.5549 27.7146 12.5549 27.7398C12.5034 27.7398 12.4518 27.7398 12.4003 27.7398C12.4003 27.7651 12.4003 27.7903 12.4003 27.8156C12.3145 27.8156 12.2286 27.8156 12.1428 27.8156C12.1428 27.8492 12.1428 27.883 12.1428 27.9166C12.0913 27.9166 12.0398 27.9166 11.9883 27.9166C11.9883 27.9418 11.9883 27.9671 11.9883 27.9924C11.8853 27.9924 11.7822 27.9924 11.6792 27.9924C11.6792 28.0176 11.6792 28.0429 11.6792 28.0681C11.5419 28.0681 11.4045 28.0681 11.2672 28.0681C11.2672 28.0934 11.2672 28.1186 11.2672 28.1439C10.8379 28.1439 10.4087 28.1439 9.97948 28.1439C9.97948 29.0108 9.97948 29.878 9.97948 30.7449C9.48159 30.7449 8.98366 30.7449 8.48576 30.7449C8.48576 28.3628 8.48576 25.9805 8.48576 23.5984C8.70037 23.5984 8.915 23.5984 9.12961 23.5984C9.12961 23.5732 9.12961 23.5479 9.12961 23.5227ZM15.5423 23.5227C16.4093 23.5227 17.2764 23.5227 18.1434 23.5227C18.1434 23.5479 18.1434 23.5732 18.1434 23.5984C18.2808 23.5984 18.4181 23.5984 18.5555 23.5984C18.5555 23.6321 18.5555 23.6658 18.5555 23.6994C18.6585 23.6994 18.7615 23.6994 18.8645 23.6994C18.8645 23.7247 18.8645 23.7499 18.8645 23.7752C18.9504 23.7752 19.0362 23.7752 19.1221 23.7752C19.1221 23.8004 19.1221 23.8257 19.1221 23.8509C19.1993 23.8509 19.2766 23.8509 19.3539 23.8509C19.3539 23.8762 19.3539 23.9014 19.3539 23.9267C19.4054 23.9267 19.4569 23.9267 19.5084 23.9267C19.5084 23.952 19.5084 23.9772 19.5084 24.0025C19.5599 24.0025 19.6114 24.0025 19.6629 24.0025C19.6629 24.0277 19.6629 24.053 19.6629 24.0782C19.6972 24.0782 19.7316 24.0782 19.7659 24.0782C19.7659 24.1035 19.7659 24.1287 19.7659 24.154C19.8174 24.154 19.8689 24.154 19.9204 24.154C19.9204 24.1792 19.9204 24.2045 19.9204 24.2297C19.9719 24.2297 20.0235 24.2297 20.075 24.2297C20.075 24.255 20.075 24.2802 20.075 24.3055C20.1007 24.3055 20.1265 24.3055 20.1522 24.3055C20.1522 24.3391 20.1522 24.3728 20.1522 24.4065C20.178 24.4065 20.2037 24.4065 20.2295 24.4065C20.2295 24.4317 20.2295 24.457 20.2295 24.4823C20.2552 24.4823 20.281 24.4823 20.3067 24.4823C20.3067 24.5075 20.3067 24.5328 20.3067 24.558C20.3325 24.558 20.3583 24.558 20.384 24.558C20.384 24.5833 20.384 24.6085 20.384 24.6338C20.4183 24.6338 20.4527 24.6338 20.487 24.6338C20.487 24.659 20.487 24.6843 20.487 24.7095C20.5128 24.7095 20.5385 24.7095 20.5643 24.7095C20.5643 24.7348 20.5643 24.76 20.5643 24.7853C20.59 24.7853 20.6158 24.7853 20.6415 24.7853C20.6415 24.8358 20.6415 24.8863 20.6415 24.9368C20.6673 24.9368 20.6931 24.9368 20.7188 24.9368C20.7188 24.9621 20.7188 24.9873 20.7188 25.0126C20.7446 25.0126 20.7703 25.0126 20.7961 25.0126C20.7961 25.0715 20.7961 25.1304 20.7961 25.1893C20.8218 25.1893 20.8476 25.1893 20.8733 25.1893C20.8733 25.2398 20.8733 25.2903 20.8733 25.3408C20.8991 25.3408 20.9248 25.3408 20.9506 25.3408C20.9506 25.3913 20.9506 25.4418 20.9506 25.4924C20.9763 25.4924 21.0021 25.4924 21.0278 25.4924C21.0733 25.6479 21.099 25.8078 21.1051 25.9722C21.1394 25.9722 21.1738 25.9722 21.2081 25.9722C21.2081 26.1237 21.2081 26.2752 21.2081 26.4267C21.2339 26.4267 21.2596 26.4267 21.2854 26.4267C21.2854 26.7886 21.2854 27.1507 21.2854 27.5126C21.2596 27.5126 21.2339 27.5126 21.2081 27.5126C21.2081 27.6724 21.2081 27.8325 21.2081 27.9924C21.1738 27.9924 21.1394 27.9924 21.1051 27.9924C21.1051 28.0934 21.1051 28.1944 21.1051 28.2954C21.0794 28.2954 21.0536 28.2954 21.0278 28.2954C21.0278 28.3711 21.0278 28.4469 21.0278 28.5227C21.0021 28.5227 20.9763 28.5227 20.9506 28.5227C20.9506 28.5815 20.9506 28.6406 20.9506 28.6994C20.9248 28.6994 20.8991 28.6994 20.8733 28.6994C20.8733 28.7499 20.8733 28.8004 20.8733 28.8509C20.8476 28.8509 20.8218 28.8509 20.7961 28.8509C20.7961 28.9014 20.7961 28.952 20.7961 29.0025C20.7703 29.0025 20.7446 29.0025 20.7188 29.0025C20.7188 29.053 20.7188 29.1035 20.7188 29.154C20.6931 29.154 20.6673 29.154 20.6415 29.154C20.6415 29.1792 20.6415 29.2045 20.6415 29.2297C20.6158 29.2297 20.59 29.2297 20.5643 29.2297C20.5643 29.2886 20.5643 29.3477 20.5643 29.4065C20.5385 29.4065 20.5128 29.4065 20.487 29.4065C20.487 29.4317 20.487 29.457 20.487 29.4823C20.4527 29.4823 20.4183 29.4823 20.384 29.4823C20.384 29.5075 20.384 29.5328 20.384 29.558C20.3583 29.558 20.3325 29.558 20.3067 29.558C20.3067 29.5833 20.3067 29.6085 20.3067 29.6338C20.281 29.6338 20.2552 29.6338 20.2295 29.6338C20.2295 29.659 20.2295 29.6843 20.2295 29.7095C20.2037 29.7095 20.178 29.7095 20.1522 29.7095C20.1522 29.7348 20.1522 29.76 20.1522 29.7853C20.1265 29.7853 20.1007 29.7853 20.075 29.7853C20.075 29.8105 20.075 29.8358 20.075 29.861C20.0492 29.861 20.0235 29.861 19.9977 29.861C19.9977 29.8863 19.9977 29.9115 19.9977 29.9368C19.9462 29.9368 19.8947 29.9368 19.8432 29.9368C19.8432 29.9704 19.8432 30.0042 19.8432 30.0378C19.8174 30.0378 19.7917 30.0378 19.7659 30.0378C19.7659 30.0631 19.7659 30.0883 19.7659 30.1136C19.7058 30.1136 19.6457 30.1136 19.5856 30.1136C19.5856 30.1388 19.5856 30.1641 19.5856 30.1893C19.5341 30.1893 19.4826 30.1893 19.4311 30.1893C19.4311 30.2146 19.4311 30.2398 19.4311 30.2651C19.3796 30.2651 19.3281 30.2651 19.2766 30.2651C19.2766 30.2903 19.2766 30.3156 19.2766 30.3408C19.2251 30.3408 19.1736 30.3408 19.1221 30.3408C19.1221 30.3661 19.1221 30.3913 19.1221 30.4166C19.0362 30.4166 18.9504 30.4166 18.8645 30.4166C18.8645 30.4418 18.8645 30.4671 18.8645 30.4924C18.7873 30.4924 18.71 30.4924 18.6327 30.4924C18.6327 30.5176 18.6327 30.5429 18.6327 30.5681C18.504 30.5681 18.3752 30.5681 18.2464 30.5681C18.2464 30.5934 18.2464 30.6186 18.2464 30.6439C18.1091 30.6439 17.9717 30.6439 17.8344 30.6439C17.8344 30.6775 17.8344 30.7113 17.8344 30.7449C17.491 30.7449 17.1476 30.7449 16.8042 30.7449C16.8042 30.7701 16.8042 30.7954 16.8042 30.8206C16.7012 30.8206 16.5982 30.8206 16.4952 30.8206C16.4952 30.7954 16.4952 30.7701 16.4952 30.7449C16.0144 30.7449 15.5337 30.7449 15.053 30.7449C15.053 30.7113 15.053 30.6775 15.053 30.6439C14.9757 30.6439 14.8985 30.6439 14.8212 30.6439C14.8212 28.2954 14.8212 25.9469 14.8212 23.5984C15.0616 23.5984 15.3019 23.5984 15.5423 23.5984C15.5423 23.5732 15.5423 23.5479 15.5423 23.5227ZM26.874 24.76C25.9383 24.76 25.0025 24.76 24.0668 24.76C24.0668 24.7937 24.0668 24.8274 24.0668 24.861C24.0584 25.4143 24.0669 25.9656 24.0925 26.5151C24.9681 26.5277 25.8438 26.532 26.7194 26.5277C26.7194 26.9317 26.7194 27.3358 26.7194 27.7398C25.8438 27.7355 24.9681 27.7398 24.0925 27.7525C24.071 27.778 24.0624 27.8075 24.0668 27.8408C24.0668 28.8088 24.0668 29.777 24.0668 30.7449C23.5431 30.7449 23.0195 30.7449 22.4958 30.7449C22.4958 28.3376 22.4958 25.93 22.4958 23.5227C23.9552 23.5227 25.4146 23.5227 26.874 23.5227C26.874 23.9351 26.874 24.3476 26.874 24.76Z" fill="#1D1D1D"/>
<path opacity="0.921" fill-rule="evenodd" clip-rule="evenodd" d="M10.0569 26.9064C10.023 26.5541 10.0058 26.1965 10.0054 25.8331C10.007 25.4478 10.0242 25.0648 10.0569 24.6842C10.1942 24.6842 10.3316 24.6842 10.4689 24.6842C10.4689 24.6589 10.4689 24.6337 10.4689 24.6084C10.632 24.6084 10.7952 24.6084 10.9583 24.6084C10.9583 24.6337 10.9583 24.6589 10.9583 24.6842C11.0956 24.6842 11.233 24.6842 11.3703 24.6842C11.3703 24.7094 11.3703 24.7347 11.3703 24.7599C11.4476 24.7599 11.5248 24.7599 11.6021 24.7599C11.6021 24.7852 11.6021 24.8104 11.6021 24.8357C11.6279 24.8357 11.6536 24.8357 11.6794 24.8357C11.6794 24.8609 11.6794 24.8862 11.6794 24.9114C11.7309 24.9198 11.7824 24.9283 11.8339 24.9367C11.8425 24.9872 11.8511 25.0377 11.8596 25.0882C11.8854 25.0882 11.9111 25.0882 11.9369 25.0882C11.9369 25.1134 11.9369 25.1387 11.9369 25.164C11.9627 25.164 11.9884 25.164 12.0142 25.164C12.0142 25.2145 12.0142 25.265 12.0142 25.3155C12.0399 25.3155 12.0657 25.3155 12.0914 25.3155C12.0914 25.6102 12.0914 25.9046 12.0914 26.1993C12.0657 26.1993 12.0399 26.1993 12.0142 26.1993C12.0142 26.2498 12.0142 26.3003 12.0142 26.3508C11.9884 26.3508 11.9627 26.3508 11.9369 26.3508C11.9369 26.4097 11.9369 26.4688 11.9369 26.5276C11.9111 26.5276 11.8854 26.5276 11.8596 26.5276C11.8596 26.5528 11.8596 26.5781 11.8596 26.6033C11.758 26.6693 11.6464 26.7198 11.5248 26.7549C11.5248 26.7801 11.5248 26.8054 11.5248 26.8306C11.4733 26.8306 11.4218 26.8306 11.3703 26.8306C11.3703 26.8559 11.3703 26.8811 11.3703 26.9064C11.2673 26.9064 11.1643 26.9064 11.0613 26.9064C11.0613 26.9316 11.0613 26.9569 11.0613 26.9821C10.7522 26.9821 10.4432 26.9821 10.1341 26.9821C10.1341 26.9569 10.1341 26.9316 10.1341 26.9064C10.1084 26.9064 10.0826 26.9064 10.0569 26.9064Z" fill="#1D1D1D"/>
<path opacity="0.046" fill-rule="evenodd" clip-rule="evenodd" d="M10.0568 24.6846C10.0241 25.0653 10.0069 25.4482 10.0052 25.8336C10.0057 26.1969 10.0229 26.5545 10.0568 26.9068C10.031 26.9068 10.0052 26.9068 9.97949 26.9068C9.97949 26.1661 9.97949 25.4252 9.97949 24.6846C10.0052 24.6846 10.031 24.6846 10.0568 24.6846Z" fill="#1D1D1D"/>
<path opacity="0.946" fill-rule="evenodd" clip-rule="evenodd" d="M16.3923 24.6846C16.9074 24.6846 17.4225 24.6846 17.9376 24.6846C17.9376 24.7098 17.9376 24.7351 17.9376 24.7603C18.0406 24.7603 18.1436 24.7603 18.2466 24.7603C18.2466 24.7856 18.2466 24.8108 18.2466 24.8361C18.3067 24.8361 18.3668 24.8361 18.4269 24.8361C18.4269 24.8613 18.4269 24.8866 18.4269 24.9118C18.4784 24.9118 18.5299 24.9118 18.5814 24.9118C18.5814 24.9455 18.5814 24.9792 18.5814 25.0129C18.6329 25.0129 18.6844 25.0129 18.7359 25.0129C18.7359 25.0381 18.7359 25.0634 18.7359 25.0886C18.7617 25.0886 18.7874 25.0886 18.8132 25.0886C18.8132 25.1139 18.8132 25.1391 18.8132 25.1644C18.8389 25.1644 18.8647 25.1644 18.8904 25.1644C18.8904 25.1896 18.8904 25.2149 18.8904 25.2401C18.9162 25.2401 18.942 25.2401 18.9677 25.2401C18.9677 25.2654 18.9677 25.2906 18.9677 25.3159C18.9935 25.3159 19.0192 25.3159 19.045 25.3159C19.045 25.3411 19.045 25.3664 19.045 25.3916C19.0793 25.3916 19.1137 25.3916 19.148 25.3916C19.148 25.4169 19.148 25.4421 19.148 25.4674C19.1737 25.4674 19.1995 25.4674 19.2252 25.4674C19.2252 25.5179 19.2252 25.5684 19.2252 25.6189C19.251 25.6189 19.2768 25.6189 19.3025 25.6189C19.3025 25.6778 19.3025 25.7368 19.3025 25.7957C19.3283 25.7957 19.354 25.7957 19.3798 25.7957C19.3798 25.8462 19.3798 25.8967 19.3798 25.9472C19.4055 25.9472 19.4313 25.9472 19.457 25.9472C19.457 26.023 19.457 26.0987 19.457 26.1745C19.4828 26.1745 19.5085 26.1745 19.5343 26.1745C19.5343 26.3343 19.5343 26.4944 19.5343 26.6543C19.56 26.6543 19.5858 26.6543 19.6116 26.6543C19.6116 26.8985 19.6116 27.1424 19.6116 27.3866C19.5858 27.3866 19.56 27.3866 19.5343 27.3866C19.5343 27.5381 19.5343 27.6896 19.5343 27.8411C19.5085 27.8411 19.4828 27.8411 19.457 27.8411C19.457 27.9505 19.457 28.0601 19.457 28.1694C19.4313 28.1694 19.4055 28.1694 19.3798 28.1694C19.3798 28.2199 19.3798 28.2704 19.3798 28.3209C19.354 28.3209 19.3283 28.3209 19.3025 28.3209C19.306 28.431 19.2802 28.532 19.2252 28.624C19.1995 28.624 19.1737 28.624 19.148 28.624C19.1394 28.6745 19.1308 28.725 19.1222 28.7755C19.0965 28.7755 19.0707 28.7755 19.045 28.7755C19.045 28.8091 19.045 28.8429 19.045 28.8765C19.0192 28.8765 18.9935 28.8765 18.9677 28.8765C18.9677 28.9017 18.9677 28.927 18.9677 28.9522C18.942 28.9522 18.9162 28.9522 18.8904 28.9522C18.8904 28.9775 18.8904 29.0028 18.8904 29.028C18.8647 29.028 18.8389 29.028 18.8132 29.028C18.8132 29.0533 18.8132 29.0785 18.8132 29.1038C18.7361 29.1288 18.6588 29.154 18.5814 29.1795C18.5814 29.2048 18.5814 29.23 18.5814 29.2553C18.5299 29.2553 18.4784 29.2553 18.4269 29.2553C18.4269 29.2805 18.4269 29.3058 18.4269 29.331C18.3668 29.331 18.3067 29.331 18.2466 29.331C18.2466 29.3646 18.2466 29.3985 18.2466 29.432C18.1951 29.432 18.1436 29.432 18.0921 29.432C18.0921 29.4573 18.0921 29.4826 18.0921 29.5078C17.9553 29.4932 17.8265 29.5141 17.7058 29.5709C17.268 29.5836 16.8302 29.5879 16.3923 29.5836C16.3923 27.9505 16.3923 26.3177 16.3923 24.6846Z" fill="#1D1D1D"/>
<path opacity="0.045" fill-rule="evenodd" clip-rule="evenodd" d="M26.8741 24.7603C25.9513 24.7855 25.0242 24.7939 24.0926 24.7855C24.0988 24.8181 24.0902 24.8434 24.0669 24.8613C24.0669 24.8276 24.0669 24.7939 24.0669 24.7603C25.0026 24.7603 25.9384 24.7603 26.8741 24.7603Z" fill="#1D1D1D"/>
<path opacity="0.022" fill-rule="evenodd" clip-rule="evenodd" d="M26.7194 27.7399C26.7194 27.7651 26.7194 27.7904 26.7194 27.8157C25.8332 27.8073 24.9491 27.8159 24.0668 27.8409C24.0624 27.8076 24.071 27.778 24.0925 27.7525C24.9681 27.7399 25.8438 27.7356 26.7194 27.7399Z" fill="#1D1D1D"/>
<path opacity="0.026" fill-rule="evenodd" clip-rule="evenodd" d="M34.4199 33.1694C34.4457 33.1694 34.4714 33.1694 34.4972 33.1694C34.4972 33.6662 34.4972 34.1626 34.4972 34.6593C34.4714 34.6593 34.4457 34.6593 34.4199 34.6593C34.4199 34.1626 34.4199 33.6662 34.4199 33.1694Z" fill="#1D1D1D"/>
<path opacity="0.047" fill-rule="evenodd" clip-rule="evenodd" d="M29.7069 33.9014C29.7069 33.9266 29.7069 33.9519 29.7069 33.9771C22.7104 33.9771 15.714 33.9771 8.71753 33.9771C15.7117 33.9685 22.7082 33.9433 29.7069 33.9014Z" fill="#1D1D1D"/>
</g>
<defs>
<clipPath id="clip0_302_248">
<rect width="41" height="40" fill="white"/>
</clipPath>
</defs>
</svg>
