<svg width="63" height="61" viewBox="0 0 63 61" fill="none" xmlns="http://www.w3.org/2000/svg">
<g clip-path="url(#clip0_509_88)">
<path d="M43.7378 52.3542L37.8177 46.4341L34.5947 49.657L43.7378 58.8001L62.024 40.514L58.801 37.291L43.7378 52.3542Z" fill="#EB9719"/>
<path d="M30.0237 32.7193C32.5485 32.7193 34.5952 30.6725 34.5952 28.1477C34.5952 25.6229 32.5485 23.5762 30.0237 23.5762C27.4989 23.5762 25.4521 25.6229 25.4521 28.1477C25.4521 30.6725 27.4989 32.7193 30.0237 32.7193Z" fill="#EB9719"/>
<path d="M30.0232 41.8624C27.3107 41.8624 24.6591 41.058 22.4038 39.551C20.1484 38.044 18.3906 35.9021 17.3526 33.3961C16.3145 30.8901 16.0429 28.1325 16.5721 25.4721C17.1013 22.8118 18.4075 20.3681 20.3255 18.45C22.2435 16.532 24.6873 15.2258 27.3476 14.6966C30.008 14.1675 32.7656 14.439 35.2716 15.4771C37.7776 16.5151 39.9195 18.2729 41.4265 20.5283C42.9335 22.7837 43.7378 25.4352 43.7378 28.1477C43.7336 31.7838 42.2873 35.2697 39.7162 37.8408C37.1452 40.4118 33.6593 41.8581 30.0232 41.8624ZM30.0232 19.0047C28.2149 19.0047 26.4472 19.5409 24.9436 20.5455C23.44 21.5502 22.2681 22.9781 21.5761 24.6488C20.8841 26.3195 20.703 28.1579 21.0558 29.9315C21.4086 31.705 22.2794 33.3342 23.5581 34.6129C24.8368 35.8915 26.4659 36.7623 28.2395 37.1151C30.0131 37.4679 31.8514 37.2869 33.5221 36.5948C35.1928 35.9028 36.6208 34.7309 37.6254 33.2274C38.6301 31.7238 39.1663 29.9561 39.1663 28.1477C39.1633 25.7238 38.199 23.3999 36.485 21.6859C34.771 19.9719 32.4472 19.0077 30.0232 19.0047Z" fill="#EB9719"/>
<path d="M57.4523 28.148C57.4523 22.723 55.8436 17.4199 52.8296 12.9091C49.8156 8.39842 45.5318 4.88274 40.5197 2.80669C35.5077 0.730635 29.9926 0.187444 24.6718 1.24581C19.3511 2.30417 14.4637 4.91655 10.6276 8.7526C6.79155 12.5887 4.17917 17.4761 3.12081 22.7968C2.06244 28.1176 2.60563 33.6327 4.68169 38.6447C6.75774 43.6568 10.2734 47.9406 14.7841 50.9546C19.2949 53.9686 24.598 55.5773 30.023 55.5773V51.0057C25.5022 51.0057 21.0829 49.6651 17.3239 47.1535C13.565 44.6419 10.6353 41.072 8.90524 36.8953C7.1752 32.7186 6.72254 28.1227 7.60451 23.6887C8.48648 19.2547 10.6635 15.1819 13.8602 11.9852C17.0569 8.78846 21.1297 6.61148 25.5637 5.72951C29.9977 4.84754 34.5936 5.3002 38.7703 7.03024C42.947 8.76029 46.5169 11.69 49.0285 15.4489C51.5401 19.2079 52.8807 23.6272 52.8807 28.148H57.4523Z" fill="#EB9719"/>
</g>
<defs>
<clipPath id="clip0_509_88">
<rect width="61.9531" height="61" fill="white" transform="translate(0.921875)"/>
</clipPath>
</defs>
</svg>
