<svg width="68" height="68" viewBox="0 0 68 68" fill="none" xmlns="http://www.w3.org/2000/svg">
<path d="M29.75 35.2537L24.2462 29.75L21.25 32.7463L29.75 41.2463L46.75 24.2462L43.7537 21.25L29.75 35.2537Z" fill="#EB9719"/>
<path d="M34 63.75L20.876 56.7524C17.1346 54.7619 14.0058 51.7902 11.8255 48.1562C9.64512 44.5221 8.49551 40.3629 8.50001 36.125V8.5C8.50114 7.37318 8.94927 6.29282 9.74605 5.49604C10.5428 4.69925 11.6232 4.25113 12.75 4.25H55.25C56.3768 4.25113 57.4572 4.69925 58.254 5.49604C59.0508 6.29282 59.4989 7.37318 59.5 8.5V36.125C59.5045 40.3629 58.3549 44.5221 56.1746 48.1562C53.9942 51.7902 50.8654 54.7619 47.124 56.7524L34 63.75ZM12.75 8.5V36.125C12.7465 39.5926 13.6874 42.9957 15.4716 45.969C17.2559 48.9423 19.8162 51.3735 22.8778 53.0017L34 58.9326L45.1223 53.0039C48.1841 51.3755 50.7446 48.9439 52.5289 45.9702C54.3132 42.9965 55.2539 39.5929 55.25 36.125V8.5H12.75Z" fill="#EB9719"/>
</svg>
