<svg width="39" height="39" viewBox="0 0 39 39" fill="none" xmlns="http://www.w3.org/2000/svg">
<path d="M19.5 36.5625C16.1254 36.5625 12.8265 35.5618 10.0206 33.687C7.21468 31.8121 5.02773 29.1473 3.73631 26.0295C2.44489 22.9118 2.107 19.4811 2.76536 16.1713C3.42372 12.8615 5.04876 9.82123 7.435 7.435C9.82123 5.04876 12.8615 3.42372 16.1713 2.76536C19.4811 2.107 22.9118 2.44489 26.0295 3.73631C29.1473 5.02773 31.8121 7.21468 33.687 10.0206C35.5618 12.8265 36.5625 16.1254 36.5625 19.5C36.5625 24.0253 34.7649 28.3652 31.565 31.565C28.3652 34.7649 24.0253 36.5625 19.5 36.5625ZM19.5 4.87501C16.6075 4.87501 13.7799 5.73275 11.3748 7.33976C8.96972 8.94678 7.0952 11.2309 5.98827 13.9033C4.88134 16.5756 4.59171 19.5162 5.15602 22.3532C5.72033 25.1902 7.11323 27.7961 9.15857 29.8414C11.2039 31.8868 13.8098 33.2797 16.6468 33.844C19.4838 34.4083 22.4244 34.1187 25.0968 33.0117C27.7691 31.9048 30.0532 30.0303 31.6602 27.6252C33.2673 25.2202 34.125 22.3926 34.125 19.5C34.125 15.6212 32.5842 11.9013 29.8414 9.15857C27.0987 6.41585 23.3788 4.87501 19.5 4.87501Z" fill="#262626"/>
<path d="M25.9537 25.9529C25.4789 26.4276 24.7092 26.4276 24.2344 25.9529L18.6382 20.3567C18.4097 20.1281 18.2812 19.8181 18.2812 19.4949V9.75C18.2812 9.0769 18.8269 8.53125 19.5 8.53125C20.1731 8.53125 20.7188 9.0769 20.7188 9.75V18.484C20.7188 18.8068 20.8468 19.1165 21.0749 19.3449L25.9546 24.2344C26.4285 24.7093 26.4281 25.4784 25.9537 25.9529Z" fill="#262626"/>
</svg>
