<svg width="60" height="60" viewBox="0 0 60 60" fill="none" xmlns="http://www.w3.org/2000/svg">
<g clip-path="url(#clip0_302_545)">
<path d="M24.3047 0.234375C23.8594 0.527344 23.7305 0.773438 22.8633 2.98828L22.1836 4.74609L21.0234 5.16797C20.3789 5.40234 19.3945 5.80078 18.8203 6.07031C18.2461 6.33984 17.7305 6.5625 17.6719 6.5625C17.6133 6.5625 16.7109 6.1875 15.6914 5.74219C13.7695 4.89844 13.1719 4.76953 12.6211 5.05078C12.2578 5.23828 5.29688 12.1758 5.08594 12.5625C4.76953 13.1719 4.875 13.7109 5.74219 15.6797C6.19922 16.6992 6.5625 17.6016 6.5625 17.6602C6.5625 17.7305 6.33984 18.2461 6.07031 18.8203C5.80078 19.3945 5.40234 20.3906 5.16797 21.0234L4.74609 22.1953L2.98828 22.8633C0.785156 23.7188 0.515625 23.8594 0.234375 24.3164C0.0117188 24.6797 0 24.9258 0 30C0 35.0742 0.0117188 35.3203 0.234375 35.6836C0.515625 36.1406 0.785156 36.2812 2.98828 37.1367L4.74609 37.8047L5.16797 38.9766C5.40234 39.6094 5.80078 40.6055 6.07031 41.1797C6.33984 41.7539 6.5625 42.2695 6.5625 42.3398C6.5625 42.3984 6.19922 43.3008 5.74219 44.3203C4.89844 46.2305 4.76953 46.8281 5.05078 47.3789C5.23828 47.7422 12.1758 54.7031 12.5625 54.9141C13.1719 55.2305 13.7109 55.125 15.6914 54.2578C16.7109 53.8125 17.6133 53.4375 17.6719 53.4375C17.7305 53.4375 18.2461 53.6602 18.8203 53.9297C19.3945 54.1992 20.3789 54.5977 21.0234 54.832L22.1836 55.2539L22.8633 57.0117C23.7305 59.2383 23.8594 59.4844 24.3164 59.7656C24.6797 59.9883 24.9258 60 30 60C35.0742 60 35.3203 59.9883 35.6836 59.7656C36.1406 59.4844 36.2812 59.2148 37.1367 57.0117L37.8164 55.2539L38.9766 54.832C39.6211 54.5977 40.6055 54.1992 41.1797 53.9297C41.7539 53.6602 42.2695 53.4375 42.3398 53.4375C42.3984 53.4375 43.3008 53.8008 44.3203 54.2578C46.2891 55.125 46.8281 55.2305 47.4375 54.9141C47.8242 54.7031 54.7617 47.7422 54.9492 47.3789C55.2305 46.8281 55.1016 46.2305 54.2578 44.3086C53.8125 43.2891 53.4375 42.3867 53.4375 42.3281C53.4375 42.2695 53.6602 41.7539 53.9297 41.1797C54.1992 40.6055 54.5977 39.6211 54.832 38.9766L55.2539 37.8164L57.0117 37.1367C59.2148 36.2812 59.4844 36.1406 59.7656 35.6836C59.9883 35.3203 60 35.0742 60 30C60 24.9258 59.9883 24.6797 59.7656 24.3164C59.4844 23.8594 59.2148 23.7188 57.0117 22.8633L55.2539 22.1836L54.832 21.0234C54.5977 20.3789 54.1992 19.3945 53.9297 18.8203C53.6602 18.2461 53.4375 17.7305 53.4375 17.6719C53.4375 17.6133 53.8125 16.7109 54.2578 15.6914C55.125 13.7109 55.2305 13.1719 54.9141 12.5625C54.7031 12.1758 47.7422 5.23828 47.3789 5.05078C46.8281 4.76953 46.2305 4.89844 44.3203 5.74219C43.3008 6.1875 42.3984 6.5625 42.3398 6.5625C42.2695 6.5625 41.7539 6.33984 41.1797 6.07031C40.6055 5.80078 39.6211 5.40234 38.9766 5.16797L37.8164 4.74609L37.1367 2.98828C36.2812 0.785156 36.1406 0.515625 35.6836 0.234375C35.3203 0.0117188 35.0859 0 29.9883 0C24.8906 0 24.6562 0.0117188 24.3047 0.234375ZM34.1602 5.42578C34.5586 6.43359 35.0039 7.39453 35.1562 7.55859C35.3203 7.73438 35.9414 8.00391 36.9492 8.33203C37.793 8.61328 39.2109 9.19922 40.1133 9.63281C42.2109 10.6641 42.2227 10.6641 44.4844 9.66797L46.2188 8.89453L48.6562 11.3438L51.1055 13.7812L50.332 15.5156C49.3359 17.7773 49.3359 17.7891 50.3672 19.8867C50.8008 20.7891 51.3867 22.207 51.668 23.0508C51.9961 24.0586 52.2656 24.6797 52.4414 24.8438C52.6055 24.9961 53.5664 25.4414 54.5742 25.8398L56.4258 26.5781V30V33.4219L54.5742 34.1602C53.5664 34.5586 52.6055 35.0039 52.4531 35.1445C52.2656 35.3203 51.9961 35.9297 51.6797 36.8906C51.4102 37.7109 50.8242 39.1406 50.3789 40.0664C49.7695 41.332 49.5703 41.8711 49.5703 42.2461C49.5703 42.6094 49.7812 43.2422 50.332 44.4844L51.1055 46.2188L48.6562 48.6562L46.2188 51.1055L44.4844 50.332C42.2227 49.3359 42.2109 49.3359 40.1133 50.3672C39.2109 50.8008 37.793 51.3867 36.9492 51.668C35.9414 51.9961 35.3203 52.2656 35.1562 52.4414C35.0039 52.6055 34.5586 53.5664 34.1602 54.5742L33.4219 56.4258H30H26.5781L25.8398 54.5742C25.4414 53.5664 24.9961 52.6055 24.8438 52.4414C24.668 52.2539 24.082 51.9961 23.0977 51.6797C22.2891 51.4102 20.8594 50.8242 19.9336 50.3789C18.668 49.7695 18.1289 49.5703 17.7539 49.5703C17.3906 49.5703 16.7578 49.7812 15.5156 50.332L13.7812 51.1055L11.332 48.6562L8.89453 46.2188L9.66797 44.4961C10.6641 42.2461 10.6641 42.2227 9.63281 40.1133C9.19922 39.2109 8.61328 37.793 8.33203 36.9492C8.00391 35.9414 7.73438 35.3203 7.55859 35.1562C7.39453 35.0039 6.43359 34.5586 5.42578 34.1602L3.57422 33.4219V30V26.5781L5.42578 25.8398C6.43359 25.4414 7.39453 24.9961 7.55859 24.8438C7.73438 24.6797 8.00391 24.0586 8.33203 23.0508C8.61328 22.207 9.19922 20.7891 9.63281 19.8867C10.6641 17.7773 10.6641 17.7539 9.66797 15.5039L8.89453 13.7812L11.332 11.3438L13.7812 8.89453L15.5156 9.66797C16.7578 10.2188 17.3906 10.4297 17.7539 10.4297C18.1289 10.4297 18.668 10.2305 19.9336 9.62109C20.8594 9.17578 22.2891 8.57812 23.1211 8.30859C24.2695 7.93359 24.6797 7.74609 24.8906 7.48828C25.043 7.3125 25.418 6.51562 25.7344 5.71875C26.0391 4.92188 26.3555 4.10156 26.4492 3.89062L26.6016 3.51562L30.0117 3.53906L33.4219 3.57422L34.1602 5.42578Z" fill="#EB9719"/>
<path d="M27.5977 10.7344C24.4336 11.2148 21.5977 12.2812 19.1602 13.9336C14.9648 16.7461 12.1289 20.9766 10.9922 26.0977C10.7695 27.0938 10.7344 27.6094 10.7227 29.9414C10.7227 32.8828 10.8047 33.5273 11.4961 35.8008C12.1758 38.0039 13.8398 41.0742 14.8242 41.9414L15.2461 42.3047H30.0234H44.8125L45.3516 41.7422C46.8281 40.2188 48.4102 36.75 49.0664 33.6328C49.3945 32.0742 49.3594 27.668 49.0078 26.0977C47.2852 18.375 41.6484 12.7148 33.9609 11.0039C33.0938 10.8047 32.3672 10.7578 30.4102 10.7227C29.0625 10.6992 27.7969 10.7109 27.5977 10.7344ZM28.5 16.9805C28.8516 17.4727 29.3086 17.6953 30 17.6953C30.7266 17.6953 31.1719 17.4609 31.5352 16.9219C31.7109 16.6523 31.7578 16.3594 31.7578 15.457V14.332L32.4375 14.4375C34.6406 14.7773 37.0078 15.7266 38.8711 17.0156L39.7266 17.6016L39.0234 18.3516C38.2031 19.2305 38.0039 19.7695 38.2031 20.5312C38.4609 21.457 39.3984 22.0195 40.3477 21.8086C40.8516 21.6914 40.9805 21.6094 41.7891 20.8359L42.3867 20.2617L42.9727 21.1172C44.2734 22.9922 45.2227 25.3594 45.5625 27.5625L45.668 28.2422H44.543C43.3008 28.2422 42.9492 28.3828 42.5273 29.0156C42.2227 29.4727 42.2227 30.5273 42.5273 30.9844C42.9492 31.6172 43.3008 31.7578 44.543 31.7578H45.668L45.5625 32.4258C45.3164 34.1016 44.543 36.2344 43.582 37.9102L43.0781 38.7891H30H16.9219L16.418 37.9102C15.457 36.2344 14.6836 34.1016 14.4375 32.4258L14.332 31.7578H15.457C16.6992 31.7578 17.0508 31.6172 17.4727 30.9844C17.7773 30.5273 17.7773 29.4727 17.4727 29.0156C17.0508 28.3828 16.6992 28.2422 15.457 28.2422H14.332L14.4375 27.5625C14.7773 25.3594 15.7266 22.9922 17.0273 21.1172L17.6133 20.2617L18.2109 20.8359C19.0195 21.6094 19.1484 21.6914 19.6523 21.8086C20.6016 22.0195 21.5391 21.457 21.7969 20.5312C21.9961 19.7695 21.7969 19.2305 20.9766 18.3516L20.2734 17.6016L21.1289 17.0156C22.7578 15.8906 24.7969 15.0117 26.7188 14.6133C28.3242 14.2617 28.1719 14.1797 28.2422 15.5273C28.2891 16.3711 28.3594 16.7812 28.5 16.9805Z" fill="#EB9719"/>
<path d="M32.7539 20.1678C32.1445 20.3436 31.8047 20.8475 30.9961 22.8046L30.2227 24.6913L29.3789 24.7499C27.668 24.8553 26.0039 26.0389 25.1836 27.7147C24.7969 28.5116 24.7852 28.5702 24.7852 29.9999C24.7852 31.4061 24.7969 31.4882 25.1602 32.2382C25.8398 33.621 26.8711 34.5468 28.3125 35.0507C28.8867 35.2499 29.2148 35.285 30.2344 35.2499C31.3477 35.2147 31.5469 35.1678 32.2852 34.8046C33.3633 34.2889 34.2891 33.3632 34.8047 32.285C35.1563 31.5585 35.2148 31.3358 35.25 30.2694C35.3203 28.6522 34.9453 27.5389 33.9727 26.4257L33.6211 26.0389L34.3945 24.1874C35.2383 22.1483 35.3086 21.6913 34.8984 20.9647C34.4883 20.2264 33.6328 19.91 32.7539 20.1678ZM30.8672 28.5819C31.3711 28.9218 31.6406 29.4022 31.6406 29.9999C31.6406 30.9374 30.9375 31.6405 30 31.6405C29.6836 31.6405 29.3438 31.5468 29.1328 31.4178C28.6289 31.078 28.3594 30.5975 28.3594 29.9999C28.3594 29.0624 29.0625 28.3593 30 28.3593C30.3164 28.3593 30.6563 28.453 30.8672 28.5819Z" fill="#EB9719"/>
</g>
<defs>
<clipPath id="clip0_302_545">
<rect width="60" height="60" fill="white"/>
</clipPath>
</defs>
</svg>
