<svg width="38" height="28" viewBox="0 0 38 28" fill="none" xmlns="http://www.w3.org/2000/svg">
<path fill-rule="evenodd" clip-rule="evenodd" d="M34.7894 0C36.5352 0 37.9528 1.38418 37.9528 3.09307V24.739C37.9528 26.446 36.5371 27.832 34.7894 27.832H3.16336C1.41754 27.832 0 26.4479 0 24.739V3.09307C0 1.38603 1.41564 0 3.16336 0H34.7894ZM13.6023 16.3801L4.28487 25.3828H33.3662L24.1493 16.4729L18.9764 19.9741L13.6023 16.3801ZM35.372 8.89141L26.2709 15.0441L35.372 23.8316V8.89141ZM2.58269 9.00459V23.544L11.475 14.9514L2.58269 9.00459ZM34.759 2.45107H3.22219C3.04902 2.44313 2.8793 2.50022 2.74778 2.61064C2.68934 2.66182 2.64422 2.72588 2.61617 2.79752C2.58811 2.86916 2.57794 2.94631 2.58648 3.02256V6.02842L18.9764 16.9887L35.3796 5.9208V3.15244C35.3815 2.90381 35.3226 2.72383 35.205 2.61064C35.1466 2.55506 35.0768 2.51213 35.0003 2.48464C34.9238 2.45715 34.8423 2.44571 34.7609 2.45107H34.759Z" fill="#EB9719"/>
</svg>
