<svg width="61" height="60" viewBox="0 0 61 60" fill="none" xmlns="http://www.w3.org/2000/svg">
<path d="M27.9571 0.0246086C15.8679 1.31946 6.52136 10.7601 5.41485 22.8023C4.89691 28.3937 6.2977 34.0557 9.39358 38.7996C9.74673 39.3529 10.041 39.8473 10.041 39.9179C10.041 39.9768 7.87507 43.7907 5.21473 48.3933C2.56617 52.9842 0.306057 56.9158 0.200114 57.1277C0.0823999 57.3396 0 57.7751 0 58.1283C0 58.8934 0.364914 59.5055 1.01234 59.8116C1.84811 60.2118 2.24834 60.0823 7.59256 57.7045C10.3118 56.4921 12.6425 55.4797 12.772 55.4562C12.9485 55.4091 13.5489 55.9035 15.244 57.4691C16.48 58.6109 17.6453 59.6468 17.8337 59.7645C18.3045 60.0588 19.2463 60.0588 19.7289 59.7645C20.2704 59.4349 20.4352 59.1759 23.2485 54.279C24.6611 51.8188 25.8265 49.8059 25.8265 49.7941C25.8382 49.7823 26.2856 49.853 26.8388 49.9354C28.5457 50.1826 30.7822 50.2532 32.4302 50.1002C33.2778 50.0178 34.0782 49.9471 34.2313 49.9471C34.4667 49.9236 34.8198 50.4651 37.0917 54.3967C38.5043 56.857 39.7874 59.0229 39.9168 59.1995C40.4819 59.9764 41.6708 60.2354 42.4359 59.7645C42.636 59.6468 43.7661 58.6344 44.9668 57.5279C46.1675 56.4097 47.2151 55.4679 47.2857 55.4326C47.3681 55.3973 49.7813 56.4097 52.6535 57.681C58.2332 60.153 58.4215 60.2118 59.2926 59.7998C59.9047 59.5055 60.2696 58.8816 60.2696 58.1283C60.2696 57.7869 60.1872 57.3396 60.0813 57.1277C59.9165 56.8099 52.5711 44.0732 50.9702 41.3187L50.4169 40.377L51.3351 38.9997C57.8565 29.1471 56.75 16.3751 48.6041 7.66425C45.8143 4.68608 41.5648 2.10815 37.4919 0.942776C35.1141 0.248264 33.6898 0.0481491 30.8999 0.0128365C29.5462 -0.0107079 28.2161 0.0010643 27.9571 0.0246086ZM34.6197 4.23877C43.8014 6.2046 50.5229 13.6088 51.5588 22.8494C52.2768 29.3119 49.8401 35.8568 44.9903 40.4594C39.9875 45.215 32.8305 47.275 26.1914 45.8742C23.4604 45.2974 20.3528 43.9437 18.128 42.3546C16.7625 41.3893 14.1845 38.8467 13.2664 37.5401C11.689 35.3271 10.5119 32.8315 9.88798 30.4066C9.35827 28.3466 9.24056 27.3931 9.25233 24.9682C9.25233 23.1672 9.29941 22.4609 9.5113 21.3544C11.2182 12.2786 18.3281 5.41591 27.4627 4.01511C29.2166 3.74437 32.8893 3.86209 34.6197 4.23877ZM14.5965 44.5912C16.2092 45.9331 18.5635 47.3339 20.6588 48.2168C21.3062 48.4993 21.8477 48.7347 21.8713 48.7465C21.9066 48.7818 18.5047 54.691 18.3634 54.8441C18.3163 54.9029 17.4335 54.1613 16.4093 53.2196C15.3852 52.2661 14.3847 51.4068 14.1845 51.3009C13.4429 50.9124 12.9485 51.0419 10.1823 52.2661C6.69793 53.8199 6.56845 53.8788 6.6273 53.7729C6.66262 53.7258 7.7809 51.7835 9.12284 49.4527C10.4648 47.122 11.8538 44.7206 12.2187 44.1203L12.8544 43.0138L13.4076 43.5317C13.7019 43.826 14.2434 44.2969 14.5965 44.5912ZM50.4993 48.3345C52.0179 50.9595 53.3598 53.2785 53.4893 53.5021C53.6188 53.7258 53.6776 53.8788 53.6188 53.8435C53.5481 53.8082 52.1473 53.1725 50.4993 52.4427C47.2975 51.0301 46.8384 50.9124 46.0851 51.3009C45.885 51.4068 44.8844 52.2661 43.872 53.2078C42.8479 54.1495 41.9886 54.9265 41.9651 54.9265C41.918 54.9265 38.6455 49.2879 38.5514 49.0407C38.5043 48.9113 38.6926 48.7935 39.2812 48.5934C41.4471 47.8518 44.7667 45.8978 46.6736 44.238C47.1916 43.7907 47.6507 43.4493 47.686 43.4964C47.7213 43.5317 48.9926 45.7094 50.4993 48.3345Z" fill="#EB9719"/>
<path d="M29.6051 9.65368C28.8753 9.9715 28.7222 10.3129 27.1331 15.2451L25.6146 19.9772L20.5411 19.9419L15.4676 19.9066L15.0321 20.2009C13.9609 20.9189 13.8432 22.4139 14.7849 23.2732C14.9732 23.4498 16.7978 24.7917 18.8343 26.2514C20.8707 27.7228 22.554 28.9941 22.5776 29.0765C22.5893 29.1589 21.9419 31.2542 21.1297 33.7262C20.082 36.928 19.6583 38.3995 19.6583 38.7997C19.6583 39.5295 20.0232 40.071 20.753 40.4359C21.8007 40.9539 21.8477 40.9185 26.3326 37.6579C28.5221 36.0569 30.3585 34.7621 30.4291 34.7621C30.4997 34.7621 32.3478 36.0569 34.5255 37.6579C39.0105 40.9185 39.0693 40.9539 40.1052 40.4359C40.8468 40.071 41.1999 39.5295 41.1999 38.7879C41.1999 38.3759 40.7879 36.9516 39.7285 33.7144C38.9163 31.2424 38.2571 29.1589 38.2571 29.0883C38.2571 29.0294 39.9168 27.7816 41.9298 26.322C46.1204 23.3085 46.3558 23.1084 46.5677 22.5905C46.9208 21.7429 46.5795 20.6599 45.8143 20.1773L45.3788 19.9066L40.3171 19.9419L35.2436 19.9772L33.7251 15.2333C32.6657 11.9609 32.1006 10.3953 31.9005 10.1481C31.3826 9.52419 30.382 9.3123 29.6051 9.65368ZM32.3243 23.1673C32.8775 23.7676 33.0659 23.7911 36.0205 23.7676C38.5278 23.7441 38.7633 23.7558 38.5514 23.9206C38.4219 24.0148 37.4449 24.7329 36.3737 25.5098C35.2554 26.3102 34.3254 27.0636 34.2077 27.2755C33.7722 28.0053 33.8899 28.5586 35.4908 33.3613C35.5614 33.5614 35.5732 33.5614 33.4897 32.0547C31.1707 30.3478 31.1236 30.3243 30.4291 30.3243C29.7346 30.3243 29.6875 30.3478 27.3685 32.0547C26.3915 32.761 25.544 33.3731 25.4616 33.4201C25.3792 33.479 25.4027 33.2553 25.544 32.8316C27.0507 28.2525 27.0978 28.0288 26.6269 27.2402C26.521 27.0518 25.5557 26.2749 24.4845 25.498C23.4133 24.7329 22.4363 24.0148 22.3068 23.9206C22.0949 23.7558 22.3421 23.7441 24.8377 23.7676C27.4392 23.7911 27.6275 23.7794 28.016 23.5439C28.2396 23.4145 28.5339 23.1437 28.6634 22.9436C28.7929 22.7553 29.2402 21.5075 29.664 20.1773L30.4291 17.7642L31.2649 20.3421C31.7357 21.7665 32.2066 23.026 32.3243 23.1673Z" fill="#EB9719"/>
</svg>
