<svg width="38" height="38" viewBox="0 0 38 38" fill="none" xmlns="http://www.w3.org/2000/svg">
<path fill-rule="evenodd" clip-rule="evenodd" d="M3.63123 36C3.41641 35.9994 3.20381 35.9565 3.00557 35.8737C2.80733 35.7909 2.62733 35.6699 2.47586 35.5176C2.32439 35.3652 2.2044 35.1846 2.12275 34.9859C2.04111 34.7872 1.9994 34.5743 2.00001 34.3595V3.6405C2.00001 2.73409 2.73023 2 3.63123 2H34.3695C35.2698 2 36 2.73409 36 3.6405V34.3595C36.0006 34.5743 35.9589 34.7872 35.8772 34.9859C35.7956 35.1846 35.6756 35.3652 35.5241 35.5176C35.3727 35.6699 35.1927 35.7909 34.9944 35.8737C34.7962 35.9565 34.5836 35.9994 34.3688 36H3.63123Z" stroke="#EB9719" stroke-width="2.37057" stroke-linecap="round" stroke-linejoin="round"/>
<path fill-rule="evenodd" clip-rule="evenodd" d="M30.3291 14.2765H26.5667C26.0659 14.2767 25.5857 14.4757 25.2316 14.8299C24.8774 15.184 24.6784 15.6642 24.6782 16.165V19.9437H30.3291L29.5015 25.6093H24.6782V36.0002H18.4639V25.6093H13.333V19.9444H18.3975L18.4639 14.567L18.4454 12.6399C18.4391 11.9889 18.562 11.3431 18.8068 10.7398C19.0516 10.1366 19.4135 9.58779 19.8716 9.12522C20.3297 8.66265 20.875 8.29544 21.4758 8.04482C22.0767 7.79419 22.7212 7.66511 23.3723 7.66504H30.3291V14.2765Z" fill="#EB9719"/>
</svg>
