<svg width="61" height="61" viewBox="0 0 61 61" fill="none" xmlns="http://www.w3.org/2000/svg">
<path d="M38.125 3.8125H61V61H0V1.10205L38.125 39.2271V3.8125ZM3.8125 57.1875H50.6646L3.8125 10.3354V57.1875ZM52.2729 53.375L56.0854 57.1875H57.1875V7.625H41.9375V11.4375H49.5625V15.25H41.9375V19.0625H49.5625V22.875H41.9375V26.6875H53.375V30.5H41.9375V34.3125H49.5625V38.125H41.9375V41.9375H49.5625V45.75H44.6479L48.4604 49.5625H53.375V53.375H52.2729ZM11.4375 31.6021L29.3979 49.5625H11.4375V31.6021ZM15.25 40.8354V45.75H20.1646L15.25 40.8354Z" fill="#EB9719"/>
</svg>
