<svg width="38" height="38" viewBox="0 0 38 38" fill="none" xmlns="http://www.w3.org/2000/svg">
<path d="M18.8333 26.3161C20.8176 26.3161 22.7206 25.5278 24.1237 24.1247C25.5268 22.7216 26.3151 20.8186 26.3151 18.8343C26.3151 16.85 25.5268 14.947 24.1237 13.5439C22.7206 12.1408 20.8176 11.3525 18.8333 11.3525C16.849 11.3525 14.946 12.1408 13.5429 13.5439C12.1398 14.947 11.3516 16.85 11.3516 18.8343C11.3516 20.8186 12.1398 22.7216 13.5429 24.1247C14.946 25.5278 16.849 26.3161 18.8333 26.3161Z" stroke="#EB9719" stroke-width="2.79218" stroke-linecap="round" stroke-linejoin="round"/>
<path d="M2 26.3158V11.3522C2 8.87185 2.98532 6.49308 4.7392 4.7392C6.49308 2.98532 8.87185 2 11.3522 2H26.3158C28.7961 2 31.1749 2.98532 32.9288 4.7392C34.6826 6.49308 35.668 8.87185 35.668 11.3522V26.3158C35.668 28.7961 34.6826 31.1749 32.9288 32.9288C31.1749 34.6826 28.7961 35.668 26.3158 35.668H11.3522C8.87185 35.668 6.49308 34.6826 4.7392 32.9288C2.98532 31.1749 2 28.7961 2 26.3158Z" stroke="#EB9719" stroke-width="2.79218"/>
<path d="M29.1191 8.56509L29.1375 8.54492" stroke="#EB9719" stroke-width="2.79218" stroke-linecap="round" stroke-linejoin="round"/>
</svg>
