<svg width="61" height="61" viewBox="0 0 61 61" fill="none" xmlns="http://www.w3.org/2000/svg">
<g clip-path="url(#clip0_509_85)">
<path fill-rule="evenodd" clip-rule="evenodd" d="M1.12578 0.167535C0.646238 0.376388 0.145252 0.985197 0.0600663 1.46283C0.0222987 1.67395 0.00681043 13.1685 0.0255155 27.0063L0.0594706 52.166L0.305139 52.4951C0.440244 52.676 0.698779 52.9346 0.879754 53.0697C1.20703 53.314 1.27339 53.3153 13.3437 53.3153C25.4139 53.3153 25.4803 53.314 25.8075 53.0697C26.4327 52.6029 26.6278 52.2221 26.6278 51.4687C26.6278 50.7152 26.4328 50.3344 25.8075 49.8676C25.4817 49.6242 25.3763 49.6216 14.6455 49.5903L3.8124 49.5587V32.4043V15.2499H30.4999H57.1874V33.5418C57.1874 53.5354 57.1427 52.3005 57.8895 52.929C58.8691 53.7532 60.2877 53.3829 60.8847 52.1472C61.1155 51.6696 61.119 51.2773 61.119 26.4793C61.119 9.72107 61.0791 1.32105 60.9999 1.37002C60.9344 1.41053 60.8808 1.36418 60.8808 1.26708C60.8808 0.988652 60.2751 0.341003 59.8477 0.162411C59.2762 -0.0763463 1.6743 -0.0713424 1.12578 0.167535ZM0.0583983 26.6874C0.0583983 40.612 0.0722186 46.3083 0.0892557 39.3461C0.106174 32.3838 0.106174 20.9909 0.0892557 14.0287C0.0722186 7.06637 0.0583983 12.7628 0.0583983 26.6874ZM3.8124 7.6249V11.4374H30.4999H57.1874V7.6249V3.8124H30.4999H3.8124V7.6249ZM6.84453 5.88497C6.05582 6.23132 5.60189 7.14417 5.77083 8.0444C5.87532 8.60114 6.46995 9.25951 7.01049 9.41654C7.30477 9.50208 10.0641 9.53163 15.5093 9.50745C23.4388 9.47218 23.5778 9.46753 23.9013 9.22592C24.5265 8.75912 24.7216 8.37835 24.7216 7.6249C24.7216 6.87146 24.5265 6.49069 23.9013 6.02389C23.5775 5.78192 23.4475 5.77787 15.3901 5.75178C8.76972 5.73045 7.13857 5.75583 6.84453 5.88497ZM35.4383 5.8814C34.2887 6.3974 33.9669 7.92145 34.8059 8.87695C35.3007 9.44049 35.7965 9.56034 37.4348 9.51233C38.6118 9.47778 38.8732 9.43417 39.1518 9.22592C39.7767 8.75865 39.9716 8.37811 39.9716 7.6249C39.9716 6.8717 39.7767 6.49116 39.1518 6.02389C38.8664 5.81051 38.6243 5.77429 37.3125 5.74832C36.2345 5.72699 35.6975 5.76512 35.4383 5.8814ZM43.0633 5.8814C41.9137 6.3974 41.5919 7.92145 42.4309 8.87695C42.9257 9.44049 43.4215 9.56034 45.0598 9.51233C46.2368 9.47778 46.4982 9.43417 46.7768 9.22592C47.4017 8.75865 47.5966 8.37811 47.5966 7.6249C47.5966 6.8717 47.4017 6.49116 46.7768 6.02389C46.4914 5.81051 46.2493 5.77429 44.9375 5.74832C43.8595 5.72699 43.3225 5.76512 43.0633 5.8814ZM50.6883 5.8814C49.5387 6.3974 49.2169 7.92145 50.0559 8.87695C50.5507 9.44049 51.0465 9.56034 52.6848 9.51233C53.8618 9.47778 54.1232 9.43417 54.4018 9.22592C55.0267 8.75865 55.2216 8.37811 55.2216 7.6249C55.2216 6.8717 55.0267 6.49116 54.4018 6.02389C54.1164 5.81051 53.8743 5.77429 52.5625 5.74832C51.4845 5.72699 50.9475 5.76512 50.6883 5.8814ZM8.75078 19.2291C8.271 19.4392 7.77037 20.0478 7.68447 20.5253C7.64658 20.7365 7.63098 25.7974 7.64992 31.772C7.68411 42.5306 7.68685 42.638 7.93014 42.9638C8.06524 43.1448 8.32378 43.4033 8.50475 43.5384C8.81988 43.7737 8.98406 43.7841 12.3905 43.7841C15.797 43.7841 15.9612 43.7737 16.2763 43.5384C16.9014 43.0716 17.0966 42.6909 17.0966 41.9374C17.0966 41.1842 16.9017 40.8035 16.2767 40.3364C15.9767 40.1121 15.7522 40.0875 13.6927 40.0537L11.4374 40.0167V31.4458V22.8749H20.9582H30.4788L30.5192 24.1771C30.5627 25.5843 30.6662 25.8495 31.3798 26.3822C31.8411 26.7266 32.9712 26.7266 33.4325 26.3822C34.2445 25.776 34.2528 25.7405 34.2528 22.8749C34.2528 20.0093 34.2445 19.9739 33.4325 19.3676C33.106 19.1238 33.0173 19.1217 21.1089 19.096C11.319 19.0747 9.04732 19.0992 8.75078 19.2291ZM39.2508 19.2284C38.4618 19.5755 38.0083 20.488 38.1771 21.3881C38.2814 21.9448 38.8761 22.6031 39.4167 22.7606C39.7078 22.8456 41.8967 22.8757 46.0094 22.8516C52.0129 22.8163 52.1744 22.8093 52.4952 22.5697C53.1203 22.1028 53.3153 21.7221 53.3153 20.9687C53.3153 20.2152 53.1203 19.8346 52.4952 19.3676C52.1738 19.1276 52.0217 19.1214 45.8901 19.0953C40.8544 19.0737 39.5423 19.1001 39.2508 19.2284ZM18.282 26.855C17.7851 27.0715 17.3021 27.6763 17.2 28.2099C17.1365 28.5422 17.3619 29.8923 18.1001 33.6002C18.6417 36.321 19.1554 38.715 19.2418 38.9203C19.3443 39.1642 23.3549 42.9194 30.8179 49.7595C37.0984 55.5157 42.4124 60.3708 42.6269 60.5484C43.0786 60.9226 43.6568 61.0604 44.2904 60.945C44.6787 60.8742 45.2807 60.3228 48.8899 56.7321C51.2088 54.4249 53.1159 52.4312 53.2087 52.2171C53.4093 51.7544 53.4204 51.2772 53.2423 50.7663C53.1453 50.4881 49.9836 47.5177 41.4772 39.7133C35.0793 33.8433 29.7231 28.9601 29.5745 28.8617C29.2837 28.6691 19.6224 26.6843 19.0128 26.6921C18.8108 26.6947 18.4819 26.7679 18.282 26.855ZM39.2508 26.8534C38.4618 27.2005 38.0083 28.113 38.1771 29.0131C38.2814 29.5698 38.8761 30.2281 39.4167 30.3856C39.7078 30.4706 41.8967 30.5007 46.0094 30.4766C52.0129 30.4413 52.1744 30.4343 52.4952 30.1947C53.1203 29.7278 53.3153 29.3471 53.3153 28.5937C53.3153 27.8402 53.1203 27.4596 52.4952 26.9926C52.1738 26.7526 52.0217 26.7464 45.8901 26.7203C40.8544 26.6987 39.5423 26.7251 39.2508 26.8534ZM21.5644 31.1909C21.5644 31.2433 21.826 32.5898 22.1459 34.183C22.7089 36.9881 22.7402 37.0926 23.1288 37.4786C23.3496 37.6978 28.0873 42.0569 33.6571 47.1654L43.7841 56.4535L46.1991 54.0504C47.5272 52.7288 48.5995 51.5898 48.5819 51.5194C48.5641 51.449 43.9926 47.2189 38.4228 42.1192C32.8529 37.0195 28.1543 32.7166 27.9811 32.5572C27.718 32.3147 27.1955 32.1718 24.7807 31.6815C21.7482 31.0658 21.5644 31.0378 21.5644 31.1909Z" fill="#EB9719"/>
</g>
<defs>
<clipPath id="clip0_509_85">
<rect width="61" height="61" fill="white"/>
</clipPath>
</defs>
</svg>
