<svg width="31" height="31" viewBox="0 0 31 31" fill="none" xmlns="http://www.w3.org/2000/svg">
<path d="M8.96257 6.45865C8.96222 7.14379 8.68972 7.80074 8.20501 8.28496C7.7203 8.76919 7.06308 9.04103 6.37794 9.04069C5.6928 9.04035 5.03585 8.76785 4.55163 8.28314C4.0674 7.79842 3.79556 7.14121 3.7959 6.45607C3.79624 5.77092 4.06874 5.11398 4.55345 4.62975C5.03816 4.14552 5.69538 3.87368 6.38052 3.87402C7.06567 3.87437 7.72261 4.14687 8.20684 4.63158C8.69106 5.11629 8.96291 5.77351 8.96257 6.45865ZM9.04007 10.9536H3.8734V27.1253H9.04007V10.9536ZM17.2034 10.9536H12.0626V27.1253H17.1517V18.6391C17.1517 13.9116 23.313 13.4724 23.313 18.6391V27.1253H28.4151V16.8824C28.4151 8.91282 19.2959 9.2099 17.1517 13.1236L17.2034 10.9536Z" fill="#EB9719"/>
</svg>
