<svg width="610" height="300" viewBox="0 0 610 300" fill="none" xmlns="http://www.w3.org/2000/svg">
<path fill-rule="evenodd" clip-rule="evenodd" d="M0.664 69.1661C-0.266 166.002 -0.168 236.779 0.896 237.436C1.388 237.741 7.799 236.858 15.142 235.474C22.484 234.091 35.694 232.256 44.496 231.397C53.298 230.537 64.775 229.295 70 228.636L79.5 227.438V186.219C79.5 163.549 79.802 145.113 80.172 145.251C80.762 145.47 105.316 167.258 119.443 180.097C126.098 186.145 156.018 212.915 158.213 214.785C159.725 216.072 162.076 215.881 178.213 213.153C201.997 209.134 211.878 207.889 249 204.239L256.5 203.501L203.5 161.116C174.35 137.804 150.365 118.387 150.2 117.966C149.93 117.276 159.098 110.236 192.5 85.4861C207.935 74.0491 232.757 55.6781 244 47.3691C299.782 6.14906 307 0.761062 307 0.345062C307 0.156062 280.788 0.0240623 248.75 0.0530623L190.5 0.105062L151.337 35.8031C129.797 55.4371 108.662 74.6511 104.37 78.5011C100.078 82.3511 93.002 88.7641 88.645 92.7511C84.289 96.7381 80.449 100.001 80.112 100.001C79.776 100.001 79.621 77.5011 79.768 50.0011L80.036 0.00106229H40.683H1.329L0.664 69.1661ZM322.872 9.59206C318.817 14.8681 310.437 25.7801 304.248 33.8421C298.06 41.9051 290.484 51.7331 287.413 55.6841C284.342 59.6351 281.755 63.2351 281.665 63.6841C281.574 64.1331 322.83 64.7261 373.344 65.0011L465.188 65.5011L446.344 79.7381C435.98 87.5691 419.625 99.9561 410 107.265C372.827 135.496 353.999 149.812 341 159.73C333.575 165.396 319.542 175.987 309.815 183.266C300.088 190.545 292.101 196.839 292.065 197.251C292.029 197.663 292.788 198.003 293.75 198.005C295.431 198.009 324.083 193.05 346 188.962C368.394 184.785 397.412 180.671 422.846 178.067C434.214 176.903 442.874 175.554 443.846 174.796C444.756 174.086 449.621 170.129 454.658 166.003C459.695 161.877 468.92 154.369 475.158 149.318C499.087 129.944 527.912 106.572 537.582 98.7041C543.128 94.1921 554.378 85.1221 562.582 78.5471C581.067 63.7341 592.854 52.0981 595.986 45.5721C599.187 38.9031 599.867 27.4971 597.542 19.4991C595.892 13.8221 592.561 8.37006 588.5 4.70006C583.085 -0.193938 588.621 0.00106229 455.154 0.00106229H330.244L322.872 9.59206ZM593.911 185.424C593.678 185.656 581.116 186.571 565.994 187.456C550.872 188.342 528.15 189.743 515.5 190.57C502.85 191.398 481.925 192.716 469 193.5C456.075 194.284 443.25 195.15 440.5 195.425C437.75 195.701 428.75 196.635 420.5 197.502C412.25 198.368 396.275 199.954 385 201.024C373.725 202.095 353.7 204.322 340.5 205.973C327.3 207.623 311.205 209.633 304.732 210.439C298.26 211.245 292.523 212.178 291.982 212.512C291.442 212.846 291 216.917 291 221.56C291 226.203 290.663 229.998 290.25 229.995C289.837 229.992 285.58 226.801 280.788 222.905L272.076 215.821L253.788 216.966C234.375 218.182 231 218.506 196.5 222.463C184.4 223.851 173.938 224.99 173.25 224.994C170.05 225.012 172.051 227.225 189.409 242.872L197.319 250.001L380.909 249.982L564.5 249.963L573.5 237.331C578.45 230.383 583.976 222.629 585.781 220.099C587.585 217.57 590.06 214.072 591.281 212.325C592.501 210.578 597.212 203.953 601.75 197.604C606.288 191.254 610 185.821 610 185.53C610 184.907 594.53 184.804 593.911 185.424ZM62 235.996C24.075 239.72 2.901 242.326 0.992 243.506C0.447 243.843 0 245.442 0 247.06V250.001H40.044H80.088L79.794 242.751L79.5 235.501L74.5 235.38C71.75 235.314 66.125 235.591 62 235.996ZM18.5 271.698C13.748 272.909 13 274.735 13 285.133C13 299.314 10.524 298.42 50.954 298.833C98.728 299.322 100 299.054 100 288.501V283.001H78C56.667 283.001 56 283.062 56 285.001C56 286.906 56.667 287.001 70 287.001H84V290.501V294.001H56.5H29V284.501V275.001H56.5C81.108 275.001 84 275.17 84 276.61C84 277.979 85.113 278.163 91.433 277.844C95.521 277.638 99.208 277.126 99.627 276.707C100.046 276.288 99.389 274.945 98.168 273.723C95.957 271.511 95.771 271.5 58.223 271.345C37.476 271.259 19.6 271.417 18.5 271.698ZM137 285.001V299.001H145H153V293.501V288.001H161.469C169.232 288.001 171.203 288.46 185.089 293.501C200.014 298.919 200.399 299 210.87 298.918L221.5 298.835L205.5 293.523L189.5 288.21L199 288.049C204.225 287.961 210.075 287.351 212 286.695C215.401 285.535 215.508 285.338 215.801 279.721C216.101 273.956 216.093 273.938 212.583 272.471C209.708 271.27 202.474 271.001 173.032 271.001H137V285.001ZM256.5 271.829C250.516 273.84 249.379 277.139 250.538 289.131C251.105 294.998 251.485 295.917 253.839 297.113C255.876 298.148 264.475 298.547 290.5 298.814C309.2 299.006 327.353 298.862 330.839 298.493C340.085 297.515 341 296.27 341 284.656C341 270.413 344.65 271.536 297.646 271.329C276.116 271.234 257.6 271.459 256.5 271.829ZM378 282.31C378 295.435 378.618 296.814 385.059 298.057C390.198 299.049 445.483 299.308 452.31 298.372C460.17 297.295 461 295.775 461 282.462V271.001H452.5H444V282.501V294.001H419.16H394.32L394.41 282.503L394.5 271.004L386.25 271.003L378 271.001V282.31ZM499 284.996V299.082L507.25 298.791L515.5 298.501L515.802 293.251L516.105 288.001L540.802 287.928C568.721 287.845 575.654 287.195 577.646 284.47C579.755 281.587 579.351 275.629 576.896 273.406C574.918 271.615 572.528 271.483 536.896 271.206L499 270.911V284.996ZM198.786 275.847C199.493 276.296 200.29 277.871 200.558 279.348C201.306 283.471 198.331 284.001 174.435 284.001H153V279.501V275.001L175.25 275.016C187.488 275.025 198.079 275.399 198.786 275.847ZM324.429 284.751L324.5 294.001H295.75H267V284.486V274.97L295.679 275.236L324.358 275.501L324.429 284.751ZM560.804 275.645C562.68 276.148 563.051 276.84 562.804 279.382L562.5 282.501L539.25 282.769L516 283.038V279.019V275.001L537.25 275.015C548.938 275.022 559.537 275.306 560.804 275.645Z" fill="black"/>
</svg>
