<svg width="39" height="39" viewBox="0 0 39 39" fill="none" xmlns="http://www.w3.org/2000/svg">
<path fill-rule="evenodd" clip-rule="evenodd" d="M19.5003 34.4313L20.6721 33.1108C22.0019 31.588 23.1979 30.1431 24.262 28.7688L25.1404 27.61C28.8083 22.6681 30.6431 18.7458 30.6431 15.8468C30.6431 9.65884 25.6548 4.6427 19.5003 4.6427C13.3457 4.6427 8.35742 9.65884 8.35742 15.8468C8.35742 18.7458 10.1923 22.6681 13.8601 27.61L14.7386 28.7688C16.2567 30.714 17.8449 32.6015 19.5003 34.4313Z" stroke="#262626" stroke-width="2.44" stroke-linecap="round" stroke-linejoin="round"/>
<path d="M19.4993 20.4284C22.0635 20.4284 24.1422 18.3497 24.1422 15.7856C24.1422 13.2214 22.0635 11.1427 19.4993 11.1427C16.9351 11.1427 14.8564 13.2214 14.8564 15.7856C14.8564 18.3497 16.9351 20.4284 19.4993 20.4284Z" stroke="#262626" stroke-width="2.44" stroke-linecap="round" stroke-linejoin="round"/>
</svg>
