<svg width="18" height="18" viewBox="0 0 18 18" fill="none" xmlns="http://www.w3.org/2000/svg">
<g clip-path="url(#clip0_311_28)">
<path d="M18 13.4999C18 14.0303 17.7893 14.539 17.4142 14.9141C17.0391 15.2892 16.5304 15.4999 16 15.4999H2C1.46957 15.4999 0.960859 15.2892 0.585786 14.9141C0.210714 14.539 0 14.0303 0 13.4999V4.49988C0 3.96944 0.210714 3.46074 0.585786 3.08566C0.960859 2.71059 1.46957 2.49988 2 2.49988H16C16.5304 2.49988 17.0391 2.71059 17.4142 3.08566C17.7893 3.46074 18 3.96944 18 4.49988V13.4999Z" fill="#C60A1D"/>
<path d="M0 5.99988H18V11.9999H0V5.99988Z" fill="#FFC400"/>
<path d="M4.50002 8.5V10C4.50002 10.3978 4.65805 10.7794 4.93935 11.0607C5.22066 11.342 5.60219 11.5 6.00002 11.5C6.39784 11.5 6.77937 11.342 7.06068 11.0607C7.34198 10.7794 7.50002 10.3978 7.50002 10V8.5H4.50002Z" fill="#EA596E"/>
<path d="M6 8H7.5V9.5H6V8Z" fill="#F4A2B2"/>
<path d="M4.50002 8H6.00002V9.5H4.50002V8Z" fill="#DD2E44"/>
<path d="M6.00002 7.99988C6.82844 7.99988 7.50002 7.66409 7.50002 7.24988C7.50002 6.83566 6.82844 6.49988 6.00002 6.49988C5.17159 6.49988 4.50002 6.83566 4.50002 7.24988C4.50002 7.66409 5.17159 7.99988 6.00002 7.99988Z" fill="#EA596E"/>
<path d="M6.00002 7.24988C6.82844 7.24988 7.50002 7.08198 7.50002 6.87488C7.50002 6.66777 6.82844 6.49988 6.00002 6.49988C5.17159 6.49988 4.50002 6.66777 4.50002 6.87488C4.50002 7.08198 5.17159 7.24988 6.00002 7.24988Z" fill="#FFAC33"/>
<path d="M3.5 8H4V11.5H3.5V8ZM8 8H8.5V11.5H8V8Z" fill="#99AAB5"/>
<path d="M3 11H4.5V11.5H3V11ZM7.5 11H9V11.5H7.5V11ZM3.5 7.5H4V8H3.5V7.5ZM8 7.5H8.5V8H8V7.5Z" fill="#66757F"/>
</g>
<defs>
<clipPath id="clip0_311_28">
<rect width="18" height="18" fill="white"/>
</clipPath>
</defs>
</svg>
