<svg width="18" height="18" viewBox="0 0 18 18" fill="none" xmlns="http://www.w3.org/2000/svg">
<g clip-path="url(#clip0_252_26)">
<path d="M0 4.5295V6.5H2.814L0 4.5295ZM2.332 15.5H6.5V12.5815L2.332 15.5ZM11.5 12.582V15.5H15.6675L11.5 12.582ZM0 11.5V13.4705L2.815 11.5H0ZM15.6685 2.5H11.5V5.4185L15.6685 2.5ZM18 13.471V11.5H15.1845L18 13.471ZM18 6.5V4.5295L15.1855 6.5H18ZM6.5 2.5H2.332L6.5 5.4185V2.5Z" fill="#00247D"/>
<path d="M12.57 11.5L17.426 14.9005C17.6627 14.6559 17.8331 14.3549 17.921 14.026L14.3135 11.5H12.57ZM6.50001 11.5H5.42951L0.574006 14.9C0.834506 15.165 1.16851 15.3545 1.54301 15.4425L6.50001 11.9715V11.5ZM11.5 6.5H12.5705L17.426 3.1C17.1608 2.8314 16.8251 2.64332 16.4575 2.5575L11.5 6.0285V6.5ZM5.42951 6.5L0.574006 3.1C0.33709 3.34456 0.166538 3.64557 0.0785065 3.9745L3.68601 6.5H5.42951Z" fill="#CF1B2B"/>
<path d="M18 10.5H10.5V15.5H11.5V12.582L15.6675 15.5H16C16.2656 15.4998 16.5285 15.4466 16.7733 15.3437C17.0181 15.2408 17.24 15.0901 17.426 14.9005L12.57 11.5H14.3135L17.921 14.026C17.9675 13.8575 18 13.683 18 13.5V13.471L15.1845 11.5H18V10.5ZM0 10.5V11.5H2.815L0 13.4705V13.5C0 14.0455 0.2195 14.539 0.574 14.9L5.4295 11.5H6.5V11.9715L1.543 15.442C1.69 15.477 1.842 15.5 2 15.5H2.332L6.5 12.5815V15.5H7.5V10.5H0ZM18 4.5C18.0005 3.97596 17.7942 3.47289 17.426 3.1L12.5705 6.5H11.5V6.0285L16.4575 2.5575C16.3077 2.52076 16.1542 2.50146 16 2.5H15.6685L11.5 5.4185V2.5H10.5V7.5H18V6.5H15.1855L18 4.5295V4.5ZM6.5 2.5V5.4185L2.332 2.5H2C1.73437 2.5003 1.47147 2.55352 1.22664 2.65653C0.9818 2.75955 0.759938 2.91031 0.574 3.1L5.4295 6.5H3.686L0.0785 3.9745C0.0290784 4.1454 0.00267879 4.32212 0 4.5L0 4.5295L2.814 6.5H0V7.5H7.5V2.5H6.5Z" fill="#EEEEEE"/>
<path d="M10.5 7.5V2.5H7.5V7.5H0V10.5H7.5V15.5H10.5V10.5H18V7.5H10.5Z" fill="#CF1B2B"/>
</g>
<defs>
<clipPath id="clip0_252_26">
<rect width="18" height="18" fill="white"/>
</clipPath>
</defs>
</svg>
